<svg width="68" height="68" viewBox="0 0 68 68" fill="none" xmlns="http://www.w3.org/2000/svg">
<path d="M5.6665 26.9167C5.66656 23.7637 6.62302 20.685 8.40955 18.0871C10.1961 15.4891 12.7286 13.4942 15.6727 12.3658C18.6168 11.2374 21.834 11.0286 24.8992 11.767C27.9645 12.5053 30.7336 14.1561 32.841 16.5013C32.9894 16.66 33.1689 16.7866 33.3682 16.8731C33.5676 16.9596 33.7825 17.0042 33.9998 17.0042C34.2171 17.0042 34.4321 16.9596 34.6315 16.8731C34.8308 16.7866 35.0102 16.66 35.1587 16.5013C37.2594 14.1409 40.0292 12.4762 43.0995 11.7289C46.1697 10.9815 49.3947 11.187 52.3453 12.3179C55.2959 13.4488 57.8321 15.4515 59.6163 18.0594C61.4006 20.6673 62.3482 23.7568 62.3332 26.9167C62.3332 33.405 58.0832 38.25 53.8332 42.5L38.2725 57.5535C37.7446 58.1599 37.0936 58.6469 36.363 58.9824C35.6323 59.3178 34.8386 59.4939 34.0347 59.499C33.2307 59.5041 32.4348 59.338 31.7 59.0119C30.9651 58.6857 30.3081 58.207 29.7725 57.6073L14.1665 42.5C9.9165 38.25 5.6665 33.4333 5.6665 26.9167Z" stroke="#800020" stroke-width="2" stroke-linecap="round" stroke-linejoin="round"/>
</svg>
