<svg width="190" height="57" viewBox="0 0 190 57" fill="none" xmlns="http://www.w3.org/2000/svg">
<path d="M9.956 52.623C8.28867 52.623 6.70267 52.379 5.198 51.891C3.69333 51.403 2.453 50.671 1.477 49.695C0.541667 48.719 0.0740001 47.499 0.0740001 46.035C0.0740001 44.5303 0.724667 43.168 2.026 41.948C3.368 40.728 5.259 40.118 7.699 40.118C10.261 40.118 12.6807 40.7077 14.958 41.887C17.276 43.0257 19.716 44.266 22.278 45.608C24.4333 43.534 26.3447 41.1347 28.012 38.41C29.72 35.6447 31.3467 32.737 32.892 29.687C34.478 26.637 36.1047 23.6073 37.772 20.598C39.4393 17.548 41.31 14.7217 43.384 12.119C43.75 11.6717 44.116 11.2243 44.482 10.777C44.848 10.289 45.2343 9.82133 45.641 9.374C43.445 8.07267 41.0863 7.07633 38.565 6.385C36.0437 5.653 33.441 5.287 30.757 5.287C27.4223 5.287 24.3317 5.714 21.485 6.568C18.6383 7.422 16.1577 8.581 14.043 10.045C11.969 11.4683 10.3423 13.095 9.163 14.925C7.98367 16.7143 7.394 18.5647 7.394 20.476C7.394 22.184 7.73967 23.6073 8.431 24.746C9.163 25.844 10.078 26.6573 11.176 27.186C12.274 27.7147 13.3517 27.979 14.409 27.979C15.8323 27.979 17.0523 27.7147 18.069 27.186C19.0857 26.6167 19.9193 25.9253 20.57 25.112C21.2207 24.2987 21.7087 23.5057 22.034 22.733C22.3593 21.9603 22.5423 21.33 22.583 20.842C22.583 20.5573 22.766 20.415 23.132 20.415C23.7013 20.415 23.925 20.7607 23.803 21.452C23.5997 23.0787 22.9897 24.502 21.973 25.722C20.9563 26.9013 19.7363 27.8367 18.313 28.528C16.8897 29.1787 15.4257 29.504 13.921 29.504C12.1317 29.504 10.505 29.1787 9.041 28.528C7.577 27.8367 6.39767 26.82 5.503 25.478C4.649 24.0953 4.222 22.4077 4.222 20.415C4.222 17.7717 4.93367 15.413 6.357 13.339C7.78033 11.2243 9.73233 9.435 12.213 7.971C14.6937 6.507 17.5403 5.38867 20.753 4.616C23.9657 3.84333 27.3613 3.457 30.94 3.457C33.7053 3.457 36.491 3.80267 39.297 4.494C42.103 5.14466 44.7667 6.141 47.288 7.483C48.3453 6.30367 49.423 5.26667 50.521 4.372C51.6597 3.43667 52.8187 2.725 53.998 2.237C54.5267 2.03366 54.9537 1.932 55.279 1.932C55.523 1.932 55.645 1.993 55.645 2.115C55.645 2.31833 55.1773 2.82666 54.242 3.64C53.7133 4.128 53.083 4.88033 52.351 5.897C51.619 6.873 50.8667 7.95066 50.094 9.13C52.534 10.716 54.6893 12.6477 56.56 14.925C58.4713 17.1617 59.976 19.7237 61.074 22.611C62.172 25.4577 62.721 28.6297 62.721 32.127C62.721 35.543 62.1313 38.532 60.952 41.094C59.7727 43.6153 58.1663 45.7097 56.133 47.377C54.0997 49.0443 51.7613 50.2847 49.118 51.098C46.4747 51.952 43.689 52.379 40.761 52.379C37.3043 52.379 34.0917 51.9113 31.123 50.976C28.195 50.0407 25.4703 48.9833 22.949 47.804C20.9563 49.39 18.8823 50.5897 16.727 51.403C14.6123 52.2163 12.3553 52.623 9.956 52.623ZM45.946 15.657C45.092 16.999 44.055 18.707 42.835 20.781C41.615 22.8143 40.2527 25.0307 38.748 27.43C37.2433 29.8293 35.6777 32.2287 34.051 34.628C32.4243 37.0273 30.7773 39.2843 29.11 41.399C27.4833 43.473 25.8973 45.2217 24.352 46.645C26.5073 47.7023 28.8863 48.6173 31.489 49.39C34.0917 50.1627 37.04 50.549 40.334 50.549C44.0753 50.549 47.3287 49.7763 50.094 48.231C52.8593 46.645 55.0147 44.51 56.56 41.826C58.1053 39.1013 58.878 36.031 58.878 32.615C58.878 28.1823 57.9427 24.1563 56.072 20.537C54.2013 16.877 51.7003 13.827 48.569 11.387C48.0403 12.241 47.5523 13.0543 47.105 13.827C46.6577 14.559 46.2713 15.169 45.946 15.657ZM9.956 50.732C12.03 50.854 14.043 50.488 15.995 49.634C17.9877 48.7393 19.6347 47.7837 20.936 46.767C18.496 45.5877 16.239 44.51 14.165 43.534C12.1317 42.558 10.2407 42.07 8.492 42.07C7.06867 42.07 5.97067 42.497 5.198 43.351C4.42533 44.1643 4.039 45.0793 4.039 46.096C4.039 47.3973 4.54733 48.475 5.564 49.329C6.62133 50.183 8.08533 50.6507 9.956 50.732ZM70.6844 50.244C69.1797 50.244 67.8174 49.756 66.5974 48.78C65.418 47.804 64.8284 46.3197 64.8284 44.327C64.8284 42.6597 65.1944 40.8907 65.9264 39.02C66.699 37.1493 67.6954 35.4007 68.9154 33.774C70.176 32.1067 71.5587 30.7647 73.0634 29.748C74.6087 28.6907 76.154 28.162 77.6994 28.162C78.472 28.162 79.2244 28.3857 79.9564 28.833C80.6884 29.2803 81.0544 30.053 81.0544 31.151C81.0544 32.1677 80.668 33.286 79.8954 34.506C79.1227 35.726 78.0247 36.8647 76.6014 37.922C75.9914 38.3693 75.2187 38.7963 74.2834 39.203C73.348 39.6097 72.4127 39.9553 71.4774 40.24C70.542 40.484 69.7694 40.606 69.1594 40.606C68.956 41.094 68.7527 41.7447 68.5494 42.558C68.3867 43.3713 68.3054 44.205 68.3054 45.059C68.3054 46.0757 68.5087 46.9907 68.9154 47.804C69.322 48.6173 70.0744 49.024 71.1724 49.024C72.5144 49.024 73.7547 48.6377 74.8934 47.865C76.0727 47.0923 77.1097 46.1163 78.0044 44.937C78.9397 43.7577 79.7327 42.558 80.3834 41.338C81.034 40.118 81.5424 39.081 81.9084 38.227C82.3964 38.227 82.6404 38.41 82.6404 38.776C82.1117 39.9147 81.5017 41.155 80.8104 42.497C80.1597 43.839 79.3667 45.0997 78.4314 46.279C77.5367 47.4177 76.4387 48.3733 75.1374 49.146C73.8767 49.878 72.3924 50.244 70.6844 50.244ZM69.5864 39.508C70.1557 39.508 71.1114 39.3047 72.4534 38.898C73.7954 38.4507 75.0154 37.7593 76.1134 36.824C77.1707 35.8887 77.984 34.872 78.5534 33.774C79.1227 32.6353 79.4074 31.6797 79.4074 30.907C79.4074 30.0123 79.082 29.565 78.4314 29.565C77.9434 29.565 77.2724 29.8903 76.4184 30.541C75.5644 31.1917 74.507 32.2897 73.2464 33.835C72.4737 34.811 71.7417 35.8683 71.0504 37.007C70.359 38.1457 69.871 38.9793 69.5864 39.508ZM83.9128 50.427C82.6521 50.427 81.7778 50.1017 81.2898 49.451C80.8018 48.8003 80.5578 47.9667 80.5578 46.95C80.5578 45.8927 80.7408 44.693 81.1068 43.351C81.4728 42.009 81.9608 40.5043 82.5708 38.837C82.1234 38.837 81.8998 38.6337 81.8998 38.227C82.2251 37.4137 82.5708 36.4987 82.9368 35.482C83.3434 34.4247 83.5468 33.2453 83.5468 31.944C83.5468 31.2933 83.4654 30.7443 83.3028 30.297C83.1401 29.8497 82.8961 29.5853 82.5708 29.504C82.5708 29.504 82.7741 29.4633 83.1808 29.382C83.6281 29.3007 84.0958 29.2193 84.5838 29.138C85.0718 29.0567 85.3971 29.016 85.5598 29.016C85.8038 28.9753 86.0274 28.955 86.2308 28.955C86.4341 28.9143 86.6171 28.894 86.7798 28.894C87.1864 28.894 87.4508 29.0567 87.5728 29.382C87.7354 29.7073 87.7964 30.419 87.7558 31.517C87.7151 32.5337 87.5118 33.774 87.1458 35.238C86.7798 36.6613 86.3934 37.9017 85.9868 38.959C85.4581 40.3417 84.9701 41.7447 84.5228 43.168C84.0754 44.5913 83.8518 45.7707 83.8518 46.706C83.8518 47.5193 84.0754 48.048 84.5228 48.292C84.8481 48.414 85.1328 48.475 85.3768 48.475C86.3121 48.475 87.2271 48.0277 88.1218 47.133C89.0164 46.2383 89.8501 45.1607 90.6228 43.9C91.4361 42.5987 92.1071 41.3583 92.6358 40.179C92.3918 39.2437 92.2698 38.1253 92.2698 36.824C92.2698 35.4413 92.4324 34.0383 92.7578 32.615C93.0831 31.1917 93.5914 30.0123 94.2828 29.077C94.9741 28.101 95.8688 27.613 96.9668 27.613C97.7394 27.613 98.1258 27.9587 98.1258 28.65C98.1258 28.8127 97.9224 29.504 97.5158 30.724C97.1498 31.944 96.6618 33.3877 96.0518 35.055C95.4418 36.7223 94.7911 38.3287 94.0998 39.874C93.9371 40.1993 93.7948 40.5247 93.6728 40.85C93.8354 41.5413 94.1404 42.1107 94.5878 42.558C95.0351 42.9647 95.5841 43.168 96.2348 43.168C97.0481 43.168 97.8004 42.802 98.4918 42.07C99.2238 41.2973 99.9761 40.0163 100.749 38.227C101.237 38.227 101.481 38.41 101.481 38.776C100.83 40.4027 100.037 41.704 99.1018 42.68C98.2071 43.656 97.1904 44.144 96.0518 44.144C94.6691 44.144 93.6728 43.4323 93.0628 42.009C92.3714 43.4323 91.5581 44.7947 90.6228 46.096C89.6874 47.3567 88.6504 48.3937 87.5118 49.207C86.4138 50.0203 85.2141 50.427 83.9128 50.427ZM119.756 56.527C116.055 56.527 112.761 55.7747 109.874 54.27C107.027 52.806 104.791 50.6303 103.164 47.743C101.578 44.815 100.785 41.2363 100.785 37.007C100.785 34.4857 101.11 31.9643 101.761 29.443C102.412 26.9217 103.286 24.502 104.384 22.184C105.523 19.866 106.783 17.731 108.166 15.779C107.556 13.339 107.251 10.6957 107.251 7.849C107.251 5.69367 107.495 3.64 107.983 1.688C108.146 1.11866 108.43 0.833997 108.837 0.833997C109.162 0.833997 109.305 1.03733 109.264 1.444C109.142 2.25733 109.04 3.13167 108.959 4.067C108.878 4.96167 108.837 6.03933 108.837 7.3C108.837 9.65866 109.061 11.8953 109.508 14.01C109.915 13.4813 110.321 12.9933 110.728 12.546C112.395 10.716 114.368 9.008 116.645 7.422C118.922 5.79533 121.444 4.494 124.209 3.518C127.015 2.542 129.984 2.054 133.115 2.054C136.043 2.054 138.727 2.603 141.167 3.701C143.607 4.75833 145.559 6.30366 147.023 8.337C148.528 10.3297 149.28 12.7493 149.28 15.596C149.28 17.3853 148.792 19.2153 147.816 21.086C146.881 22.9567 145.518 24.685 143.729 26.271C141.98 27.8163 139.845 29.077 137.324 30.053C134.843 31.029 132.058 31.517 128.967 31.517C124.9 31.517 121.179 30.6223 117.804 28.833C114.429 27.0437 111.806 24.319 109.935 20.659C108.308 23.5463 107.109 26.4743 106.336 29.443C105.563 32.4117 105.177 35.238 105.177 37.922C105.177 41.826 105.828 44.998 107.129 47.438C108.43 49.878 110.22 51.6673 112.497 52.806C114.815 53.9853 117.458 54.575 120.427 54.575C125.714 54.575 130.35 53.233 134.335 50.549C138.361 47.9057 141.675 43.7983 144.278 38.227C144.766 38.227 145.01 38.41 145.01 38.776C142.489 44.7947 139.032 49.2477 134.64 52.135C130.289 55.063 125.327 56.527 119.756 56.527ZM112.558 16.572C112.029 17.304 111.521 18.0563 111.033 18.829C112.456 22.1637 114.632 24.8477 117.56 26.881C120.488 28.9143 124.168 29.931 128.601 29.931C131.407 29.931 133.908 29.504 136.104 28.65C138.341 27.796 140.211 26.6573 141.716 25.234C143.261 23.8107 144.441 22.245 145.254 20.537C146.067 18.7883 146.474 17.0397 146.474 15.291C146.474 13.1357 145.884 11.2447 144.705 9.618C143.566 7.99133 142.001 6.73067 140.008 5.836C138.015 4.90066 135.758 4.433 133.237 4.433C130.716 4.433 128.174 4.96166 125.612 6.019C123.091 7.07633 120.691 8.52 118.414 10.35C116.177 12.18 114.225 14.254 112.558 16.572ZM151.504 50C149.837 50 148.596 49.4103 147.783 48.231C147.01 47.011 146.624 45.547 146.624 43.839C146.624 42.253 146.929 40.606 147.539 38.898C148.19 37.0273 149.084 35.3193 150.223 33.774C151.402 32.2287 152.683 30.9883 154.066 30.053C155.489 29.077 156.892 28.589 158.275 28.589C159.942 28.589 161.162 29.1583 161.935 30.297C162.748 31.4357 163.155 32.8793 163.155 34.628C163.155 35.848 162.952 37.129 162.545 38.471C162.138 39.813 161.589 41.1347 160.898 42.436C161.427 42.9647 162.179 43.229 163.155 43.229C164.294 43.229 165.27 42.863 166.083 42.131C166.896 41.399 167.689 40.0977 168.462 38.227C168.95 38.227 169.194 38.41 169.194 38.776C168.421 40.6467 167.527 42.0293 166.51 42.924C165.534 43.778 164.273 44.1847 162.728 44.144C161.793 44.144 161.02 43.8797 160.41 43.351C159.271 45.2217 157.909 46.8077 156.323 48.109C154.778 49.3697 153.171 50 151.504 50ZM152.358 48.658C153.293 48.658 154.229 48.2717 155.164 47.499C156.099 46.6857 156.953 45.7707 157.726 44.754C158.499 43.7373 159.048 42.863 159.373 42.131C158.722 40.9517 158.336 40.0773 158.214 39.508C158.133 38.898 158.092 38.4507 158.092 38.166C158.092 37.3933 158.295 36.8037 158.702 36.397C159.109 35.9903 159.515 35.787 159.922 35.787C160.491 35.787 160.979 36.031 161.386 36.519C161.467 36.0717 161.528 35.665 161.569 35.299C161.61 34.8923 161.63 34.506 161.63 34.14C161.63 33.0827 161.427 32.2287 161.02 31.578C160.654 30.8867 160.064 30.541 159.251 30.541C158.397 30.541 157.502 30.907 156.567 31.639C155.632 32.371 154.737 33.347 153.883 34.567C153.07 35.787 152.358 37.1493 151.748 38.654C151.219 39.9147 150.813 41.1143 150.528 42.253C150.243 43.351 150.101 44.3677 150.101 45.303C150.101 46.3197 150.284 47.133 150.65 47.743C151.016 48.353 151.585 48.658 152.358 48.658ZM162.599 50.488C164.063 47.5193 165.466 44.5913 166.808 41.704C168.15 38.776 169.533 35.9903 170.956 33.347C171.77 31.883 172.461 30.8663 173.03 30.297C173.6 29.687 174.352 29.382 175.287 29.382C175.613 29.382 175.958 29.443 176.324 29.565C176.69 29.6463 177.056 29.687 177.422 29.687C177.666 29.687 177.849 29.6667 177.971 29.626C177.402 29.9513 176.65 30.7647 175.714 32.066C174.82 33.3267 173.905 34.7907 172.969 36.458C172.034 38.1253 171.2 39.691 170.468 41.155C171.241 40.2197 172.054 39.2843 172.908 38.349C173.762 37.4137 174.698 36.519 175.714 35.665C176.69 34.811 177.849 33.9367 179.191 33.042C180.574 32.1067 181.916 31.334 183.217 30.724C184.519 30.114 185.556 29.809 186.328 29.809C186.613 29.809 186.816 29.8293 186.938 29.87C186.938 29.87 186.715 30.2767 186.267 31.09C185.82 31.8627 185.251 32.8997 184.559 34.201C183.909 35.4617 183.238 36.824 182.546 38.288C181.855 39.7113 181.225 41.094 180.655 42.436C180.127 43.7373 179.781 44.8353 179.618 45.73C179.496 46.2587 179.435 46.7467 179.435 47.194C179.435 47.8447 179.557 48.2717 179.801 48.475C180.045 48.6783 180.31 48.78 180.594 48.78C181.367 48.78 182.16 48.4343 182.973 47.743C183.787 47.0517 184.559 46.1773 185.291 45.12C186.064 44.022 186.776 42.863 187.426 41.643C188.077 40.423 188.626 39.2843 189.073 38.227C189.561 38.227 189.805 38.41 189.805 38.776C189.358 39.874 188.789 41.094 188.097 42.436C187.447 43.7373 186.694 44.9777 185.84 46.157C185.027 47.3363 184.112 48.3123 183.095 49.085C182.079 49.8577 180.981 50.244 179.801 50.244C178.988 50.244 178.134 49.9593 177.239 49.39C176.385 48.8207 175.958 47.7633 175.958 46.218C175.958 45.7707 175.999 45.303 176.08 44.815C176.162 44.2863 176.304 43.717 176.507 43.107C176.833 42.2937 177.219 41.4193 177.666 40.484C178.114 39.5487 178.846 38.2677 179.862 36.641C180.147 36.1937 180.31 35.848 180.35 35.604C180.432 35.36 180.472 35.1567 180.472 34.994C180.472 34.506 180.249 34.262 179.801 34.262C179.435 34.262 178.886 34.4653 178.154 34.872C177.463 35.2787 176.589 35.9903 175.531 37.007C174.515 37.983 173.295 39.3657 171.871 41.155C170.489 42.9443 168.882 45.5877 167.052 49.085C166.768 49.6137 166.442 49.8983 166.076 49.939C165.751 49.9797 165.283 50.0203 164.673 50.061C164.267 50.1017 163.88 50.122 163.514 50.122C163.148 50.1627 162.843 50.2847 162.599 50.488Z" fill="black"/>
</svg>
