<svg width="332" height="62" viewBox="0 0 332 62" fill="none" xmlns="http://www.w3.org/2000/svg">
<path d="M9.272 43.376C8.39733 43.376 7.56533 43.248 6.776 42.992C5.98667 42.736 5.336 42.352 4.824 41.84C4.33333 41.328 4.088 40.688 4.088 39.92C4.088 39.1307 4.42933 38.416 5.112 37.776C5.816 37.136 6.808 36.816 8.088 36.816C9.432 36.816 10.7013 37.1253 11.896 37.744C13.112 38.3413 14.392 38.992 15.736 39.696C16.8667 38.608 17.8693 37.3493 18.744 35.92C19.64 34.4693 20.4933 32.944 21.304 31.344C22.136 29.744 22.9893 28.1547 23.864 26.576C24.7387 24.976 25.72 23.4933 26.808 22.128C27 21.8933 27.192 21.6587 27.384 21.424C27.576 21.168 27.7787 20.9227 27.992 20.688C26.84 20.0053 25.6027 19.4827 24.28 19.12C22.9573 18.736 21.592 18.544 20.184 18.544C18.4347 18.544 16.8133 18.768 15.32 19.216C13.8267 19.664 12.5253 20.272 11.416 21.04C10.328 21.7867 9.47467 22.64 8.856 23.6C8.23733 24.5387 7.928 25.5093 7.928 26.512C7.928 27.408 8.10933 28.1547 8.472 28.752C8.856 29.328 9.336 29.7547 9.912 30.032C10.488 30.3093 11.0533 30.448 11.608 30.448C12.3547 30.448 12.9947 30.3093 13.528 30.032C14.0613 29.7333 14.4987 29.3707 14.84 28.944C15.1813 28.5173 15.4373 28.1013 15.608 27.696C15.7787 27.2907 15.8747 26.96 15.896 26.704C15.896 26.5547 15.992 26.48 16.184 26.48C16.4827 26.48 16.6 26.6613 16.536 27.024C16.4293 27.8773 16.1093 28.624 15.576 29.264C15.0427 29.8827 14.4027 30.3733 13.656 30.736C12.9093 31.0773 12.1413 31.248 11.352 31.248C10.4133 31.248 9.56 31.0773 8.792 30.736C8.024 30.3733 7.40533 29.84 6.936 29.136C6.488 28.4107 6.264 27.5253 6.264 26.48C6.264 25.0933 6.63733 23.856 7.384 22.768C8.13067 21.6587 9.15467 20.72 10.456 19.952C11.7573 19.184 13.2507 18.5973 14.936 18.192C16.6213 17.7867 18.4027 17.584 20.28 17.584C21.7307 17.584 23.192 17.7653 24.664 18.128C26.136 18.4693 27.5333 18.992 28.856 19.696C29.4107 19.0773 29.976 18.5333 30.552 18.064C31.1493 17.5733 31.7573 17.2 32.376 16.944C32.6533 16.8373 32.8773 16.784 33.048 16.784C33.176 16.784 33.24 16.816 33.24 16.88C33.24 16.9867 32.9947 17.2533 32.504 17.68C32.2267 17.936 31.896 18.3307 31.512 18.864C31.128 19.376 30.7333 19.9413 30.328 20.56C31.608 21.392 32.7387 22.4053 33.72 23.6C34.7227 24.7733 35.512 26.1173 36.088 27.632C36.664 29.1253 36.952 30.7893 36.952 32.624C36.952 34.416 36.6427 35.984 36.024 37.328C35.4053 38.6507 34.5627 39.7493 33.496 40.624C32.4293 41.4987 31.2027 42.1493 29.816 42.576C28.4293 43.024 26.968 43.248 25.432 43.248C23.6187 43.248 21.9333 43.0027 20.376 42.512C18.84 42.0213 17.4107 41.4667 16.088 40.848C15.0427 41.68 13.9547 42.3093 12.824 42.736C11.7147 43.1627 10.5307 43.376 9.272 43.376ZM28.152 23.984C27.704 24.688 27.16 25.584 26.52 26.672C25.88 27.7387 25.1653 28.9013 24.376 30.16C23.5867 31.4187 22.7653 32.6773 21.912 33.936C21.0587 35.1947 20.1947 36.3787 19.32 37.488C18.4667 38.576 17.6347 39.4933 16.824 40.24C17.9547 40.7947 19.2027 41.2747 20.568 41.68C21.9333 42.0853 23.48 42.288 25.208 42.288C27.1707 42.288 28.8773 41.8827 30.328 41.072C31.7787 40.24 32.9093 39.12 33.72 37.712C34.5307 36.2827 34.936 34.672 34.936 32.88C34.936 30.5547 34.4453 28.4427 33.464 26.544C32.4827 24.624 31.1707 23.024 29.528 21.744C29.2507 22.192 28.9947 22.6187 28.76 23.024C28.5253 23.408 28.3227 23.728 28.152 23.984ZM9.272 42.384C10.36 42.448 11.416 42.256 12.44 41.808C13.4853 41.3387 14.3493 40.8373 15.032 40.304C13.752 39.6853 12.568 39.12 11.48 38.608C10.4133 38.096 9.42133 37.84 8.504 37.84C7.75733 37.84 7.18133 38.064 6.776 38.512C6.37067 38.9387 6.168 39.4187 6.168 39.952C6.168 40.6347 6.43467 41.2 6.968 41.648C7.52267 42.096 8.29067 42.3413 9.272 42.384ZM41.1295 42.128C40.3402 42.128 39.6255 41.872 38.9855 41.36C38.3668 40.848 38.0575 40.0693 38.0575 39.024C38.0575 38.1493 38.2495 37.2213 38.6335 36.24C39.0388 35.2587 39.5615 34.3413 40.2015 33.488C40.8628 32.6133 41.5882 31.9093 42.3775 31.376C43.1882 30.8213 43.9988 30.544 44.8095 30.544C45.2148 30.544 45.6095 30.6613 45.9935 30.896C46.3775 31.1307 46.5695 31.536 46.5695 32.112C46.5695 32.6453 46.3668 33.232 45.9615 33.872C45.5562 34.512 44.9802 35.1093 44.2335 35.664C43.9135 35.8987 43.5082 36.1227 43.0175 36.336C42.5268 36.5493 42.0362 36.7307 41.5455 36.88C41.0548 37.008 40.6495 37.072 40.3295 37.072C40.2228 37.328 40.1162 37.6693 40.0095 38.096C39.9242 38.5227 39.8815 38.96 39.8815 39.408C39.8815 39.9413 39.9882 40.4213 40.2015 40.848C40.4148 41.2747 40.8095 41.488 41.3855 41.488C42.0895 41.488 42.7402 41.2853 43.3375 40.88C43.9562 40.4747 44.5002 39.9627 44.9695 39.344C45.4602 38.7253 45.8762 38.096 46.2175 37.456C46.5588 36.816 46.8255 36.272 47.0175 35.824C47.2735 35.824 47.4015 35.92 47.4015 36.112C47.1242 36.7093 46.8042 37.36 46.4415 38.064C46.1002 38.768 45.6842 39.4293 45.1935 40.048C44.7242 40.6453 44.1482 41.1467 43.4655 41.552C42.8042 41.936 42.0255 42.128 41.1295 42.128ZM40.5535 36.496C40.8522 36.496 41.3535 36.3893 42.0575 36.176C42.7615 35.9413 43.4015 35.5787 43.9775 35.088C44.5322 34.5973 44.9588 34.064 45.2575 33.488C45.5562 32.8907 45.7055 32.3893 45.7055 31.984C45.7055 31.5147 45.5348 31.28 45.1935 31.28C44.9375 31.28 44.5855 31.4507 44.1375 31.792C43.6895 32.1333 43.1348 32.7093 42.4735 33.52C42.0682 34.032 41.6842 34.5867 41.3215 35.184C40.9588 35.7813 40.7028 36.2187 40.5535 36.496ZM48.069 42.224C47.4077 42.224 46.949 42.0533 46.693 41.712C46.437 41.3707 46.309 40.9333 46.309 40.4C46.309 39.8453 46.405 39.216 46.597 38.512C46.789 37.808 47.045 37.0187 47.365 36.144C47.1303 36.144 47.013 36.0373 47.013 35.824C47.1837 35.3973 47.365 34.9173 47.557 34.384C47.7703 33.8293 47.877 33.2107 47.877 32.528C47.877 32.1867 47.8343 31.8987 47.749 31.664C47.6637 31.4293 47.5357 31.2907 47.365 31.248C47.365 31.248 47.4717 31.2267 47.685 31.184C47.9197 31.1413 48.165 31.0987 48.421 31.056C48.677 31.0133 48.8477 30.992 48.933 30.992C49.061 30.9707 49.1783 30.96 49.285 30.96C49.3917 30.9387 49.4877 30.928 49.573 30.928C49.7863 30.928 49.925 31.0133 49.989 31.184C50.0743 31.3547 50.1063 31.728 50.085 32.304C50.0637 32.8373 49.957 33.488 49.765 34.256C49.573 35.0027 49.3703 35.6533 49.157 36.208C48.8797 36.9333 48.6237 37.6693 48.389 38.416C48.1543 39.1627 48.037 39.7813 48.037 40.272C48.037 40.6987 48.1543 40.976 48.389 41.104C48.5597 41.168 48.709 41.2 48.837 41.2C49.3277 41.2 49.8077 40.9653 50.277 40.496C50.7463 40.0267 51.1837 39.4613 51.589 38.8C52.0157 38.1173 52.3677 37.4667 52.645 36.848C52.517 36.3573 52.453 35.7707 52.453 35.088C52.453 34.3627 52.5383 33.6267 52.709 32.88C52.8797 32.1333 53.1463 31.5147 53.509 31.024C53.8717 30.512 54.341 30.256 54.917 30.256C55.3223 30.256 55.525 30.4373 55.525 30.8C55.525 30.8853 55.4183 31.248 55.205 31.888C55.013 32.528 54.757 33.2853 54.437 34.16C54.117 35.0347 53.7757 35.8773 53.413 36.688C53.3277 36.8587 53.253 37.0293 53.189 37.2C53.2743 37.5627 53.4343 37.8613 53.669 38.096C53.9037 38.3093 54.1917 38.416 54.533 38.416C54.9597 38.416 55.3543 38.224 55.717 37.84C56.101 37.4347 56.4957 36.7627 56.901 35.824C57.157 35.824 57.285 35.92 57.285 36.112C56.9437 36.9653 56.5277 37.648 56.037 38.16C55.5677 38.672 55.0343 38.928 54.437 38.928C53.7117 38.928 53.189 38.5547 52.869 37.808C52.5063 38.5547 52.0797 39.2693 51.589 39.952C51.0983 40.6133 50.5543 41.1573 49.957 41.584C49.381 42.0107 48.7517 42.224 48.069 42.224ZM66.872 45.424C64.9307 45.424 63.2027 45.0293 61.688 44.24C60.1947 43.472 59.0213 42.3307 58.168 40.816C57.336 39.28 56.92 37.4027 56.92 35.184C56.92 33.8613 57.0907 32.5387 57.432 31.216C57.7733 29.8933 58.232 28.624 58.808 27.408C59.4053 26.192 60.0667 25.072 60.792 24.048C60.472 22.768 60.312 21.3813 60.312 19.888C60.312 18.7573 60.44 17.68 60.696 16.656C60.7813 16.3573 60.9307 16.208 61.144 16.208C61.3147 16.208 61.3893 16.3147 61.368 16.528C61.304 16.9547 61.2507 17.4133 61.208 17.904C61.1653 18.3733 61.144 18.9387 61.144 19.6C61.144 20.8373 61.2613 22.0107 61.496 23.12C61.7093 22.8427 61.9227 22.5867 62.136 22.352C63.0107 21.392 64.0453 20.496 65.24 19.664C66.4347 18.8107 67.7573 18.128 69.208 17.616C70.68 17.104 72.2373 16.848 73.88 16.848C75.416 16.848 76.824 17.136 78.104 17.712C79.384 18.2667 80.408 19.0773 81.176 20.144C81.9653 21.1893 82.36 22.4587 82.36 23.952C82.36 24.8907 82.104 25.8507 81.592 26.832C81.1013 27.8133 80.3867 28.72 79.448 29.552C78.5307 30.3627 77.4107 31.024 76.088 31.536C74.7867 32.048 73.3253 32.304 71.704 32.304C69.5707 32.304 67.6187 31.8347 65.848 30.896C64.0773 29.9573 62.7013 28.528 61.72 26.608C60.8667 28.1227 60.2373 29.6587 59.832 31.216C59.4267 32.7733 59.224 34.256 59.224 35.664C59.224 37.712 59.5653 39.376 60.248 40.656C60.9307 41.936 61.8693 42.8747 63.064 43.472C64.28 44.0907 65.6667 44.4 67.224 44.4C69.9973 44.4 72.4293 43.696 74.52 42.288C76.632 40.9013 78.3707 38.7467 79.736 35.824C79.992 35.824 80.12 35.92 80.12 36.112C78.7973 39.2693 76.984 41.6053 74.68 43.12C72.3973 44.656 69.7947 45.424 66.872 45.424ZM63.096 24.464C62.8187 24.848 62.552 25.2427 62.296 25.648C63.0427 27.3973 64.184 28.8053 65.72 29.872C67.256 30.9387 69.1867 31.472 71.512 31.472C72.984 31.472 74.296 31.248 75.448 30.8C76.6213 30.352 77.6027 29.7547 78.392 29.008C79.2027 28.2613 79.8213 27.44 80.248 26.544C80.6747 25.6267 80.888 24.7093 80.888 23.792C80.888 22.6613 80.5787 21.6693 79.96 20.816C79.3627 19.9627 78.5413 19.3013 77.496 18.832C76.4507 18.3413 75.2667 18.096 73.944 18.096C72.6213 18.096 71.288 18.3733 69.944 18.928C68.6213 19.4827 67.3627 20.24 66.168 21.2C64.9947 22.16 63.9707 23.248 63.096 24.464ZM83.5268 42C82.6521 42 82.0014 41.6907 81.5748 41.072C81.1694 40.432 80.9668 39.664 80.9668 38.768C80.9668 37.936 81.1268 37.072 81.4468 36.176C81.7881 35.1947 82.2574 34.2987 82.8548 33.488C83.4734 32.6773 84.1454 32.0267 84.8708 31.536C85.6174 31.024 86.3534 30.768 87.0788 30.768C87.9534 30.768 88.5934 31.0667 88.9988 31.664C89.4254 32.2613 89.6388 33.0187 89.6388 33.936C89.6388 34.576 89.5321 35.248 89.3188 35.952C89.1054 36.656 88.8174 37.3493 88.4548 38.032C88.7321 38.3093 89.1268 38.448 89.6388 38.448C90.2361 38.448 90.7481 38.256 91.1748 37.872C91.6014 37.488 92.0174 36.8053 92.4228 35.824C92.6788 35.824 92.8068 35.92 92.8068 36.112C92.4014 37.0933 91.9321 37.8187 91.3988 38.288C90.8868 38.736 90.2254 38.9493 89.4148 38.928C88.9241 38.928 88.5188 38.7893 88.1988 38.512C87.6014 39.4933 86.8868 40.3253 86.0548 41.008C85.2441 41.6693 84.4014 42 83.5268 42ZM83.9748 41.296C84.4654 41.296 84.9561 41.0933 85.4468 40.688C85.9374 40.2613 86.3854 39.7813 86.7908 39.248C87.1961 38.7147 87.4841 38.256 87.6548 37.872C87.3134 37.2533 87.1108 36.7947 87.0468 36.496C87.0041 36.176 86.9828 35.9413 86.9828 35.792C86.9828 35.3867 87.0894 35.0773 87.3028 34.864C87.5161 34.6507 87.7294 34.544 87.9427 34.544C88.2414 34.544 88.4974 34.672 88.7108 34.928C88.7534 34.6933 88.7854 34.48 88.8068 34.288C88.8281 34.0747 88.8388 33.872 88.8388 33.68C88.8388 33.1253 88.7321 32.6773 88.5188 32.336C88.3268 31.9733 88.0174 31.792 87.5908 31.792C87.1428 31.792 86.6734 31.984 86.1828 32.368C85.6921 32.752 85.2228 33.264 84.7748 33.904C84.3481 34.544 83.9748 35.2587 83.6548 36.048C83.3774 36.7093 83.1641 37.3387 83.0148 37.936C82.8654 38.512 82.7908 39.0453 82.7908 39.536C82.7908 40.0693 82.8868 40.496 83.0788 40.816C83.2708 41.136 83.5694 41.296 83.9748 41.296ZM89.3472 42.256C90.1152 40.6987 90.8513 39.1627 91.5553 37.648C92.2593 36.112 92.9846 34.6507 93.7313 33.264C94.1579 32.496 94.5206 31.9627 94.8193 31.664C95.1179 31.344 95.5126 31.184 96.0033 31.184C96.1739 31.184 96.3553 31.216 96.5473 31.28C96.7393 31.3227 96.9313 31.344 97.1233 31.344C97.2513 31.344 97.3473 31.3333 97.4113 31.312C97.1126 31.4827 96.7179 31.9093 96.2273 32.592C95.7579 33.2533 95.2779 34.0213 94.7873 34.896C94.2966 35.7707 93.8593 36.592 93.4753 37.36C93.8806 36.8693 94.3073 36.3787 94.7552 35.888C95.2033 35.3973 95.6939 34.928 96.2273 34.48C96.7393 34.032 97.3473 33.5733 98.0513 33.104C98.7766 32.6133 99.4806 32.208 100.163 31.888C100.846 31.568 101.39 31.408 101.795 31.408C101.945 31.408 102.051 31.4187 102.115 31.44C102.115 31.44 101.998 31.6533 101.763 32.08C101.529 32.4853 101.23 33.0293 100.867 33.712C100.526 34.3733 100.174 35.088 99.8113 35.856C99.4486 36.6027 99.1179 37.328 98.8193 38.032C98.5419 38.7147 98.3606 39.2907 98.2753 39.76C98.2113 40.0373 98.1793 40.2933 98.1793 40.528C98.1793 40.8693 98.2433 41.0933 98.3713 41.2C98.4993 41.3067 98.6379 41.36 98.7873 41.36C99.1926 41.36 99.6086 41.1787 100.035 40.816C100.462 40.4533 100.867 39.9947 101.251 39.44C101.657 38.864 102.03 38.256 102.371 37.616C102.713 36.976 103.001 36.3787 103.235 35.824C103.491 35.824 103.619 35.92 103.619 36.112C103.385 36.688 103.086 37.328 102.723 38.032C102.382 38.7147 101.987 39.3653 101.539 39.984C101.113 40.6027 100.633 41.1147 100.099 41.52C99.5659 41.9253 98.9899 42.128 98.3713 42.128C97.9446 42.128 97.4966 41.9787 97.0273 41.68C96.5793 41.3813 96.3553 40.8267 96.3553 40.016C96.3553 39.7813 96.3766 39.536 96.4193 39.28C96.4619 39.0027 96.5366 38.704 96.6433 38.384C96.8139 37.9573 97.0166 37.4987 97.2513 37.008C97.4859 36.5173 97.8699 35.8453 98.4033 34.992C98.5526 34.7573 98.6379 34.576 98.6593 34.448C98.7019 34.32 98.7233 34.2133 98.7233 34.128C98.7233 33.872 98.6059 33.744 98.3713 33.744C98.1793 33.744 97.8913 33.8507 97.5073 34.064C97.1446 34.2773 96.6859 34.6507 96.1313 35.184C95.5979 35.696 94.9579 36.4213 94.2113 37.36C93.4859 38.2987 92.6433 39.6853 91.6833 41.52C91.5339 41.7973 91.3633 41.9467 91.1713 41.968C91.0006 41.9893 90.7553 42.0107 90.4352 42.032C90.2219 42.0533 90.0192 42.064 89.8272 42.064C89.6352 42.0853 89.4752 42.1493 89.3472 42.256Z" fill="black"/>
<g filter="url(#filter0_d_107_228)">
<path d="M9.272 43.376C8.39733 43.376 7.56533 43.248 6.776 42.992C5.98667 42.736 5.336 42.352 4.824 41.84C4.33333 41.328 4.088 40.688 4.088 39.92C4.088 39.1307 4.42933 38.416 5.112 37.776C5.816 37.136 6.808 36.816 8.088 36.816C9.432 36.816 10.7013 37.1253 11.896 37.744C13.112 38.3413 14.392 38.992 15.736 39.696C16.8667 38.608 17.8693 37.3493 18.744 35.92C19.64 34.4693 20.4933 32.944 21.304 31.344C22.136 29.744 22.9893 28.1547 23.864 26.576C24.7387 24.976 25.72 23.4933 26.808 22.128C27 21.8933 27.192 21.6587 27.384 21.424C27.576 21.168 27.7787 20.9227 27.992 20.688C26.84 20.0053 25.6027 19.4827 24.28 19.12C22.9573 18.736 21.592 18.544 20.184 18.544C18.4347 18.544 16.8133 18.768 15.32 19.216C13.8267 19.664 12.5253 20.272 11.416 21.04C10.328 21.7867 9.47467 22.64 8.856 23.6C8.23733 24.5387 7.928 25.5093 7.928 26.512C7.928 27.408 8.10933 28.1547 8.472 28.752C8.856 29.328 9.336 29.7547 9.912 30.032C10.488 30.3093 11.0533 30.448 11.608 30.448C12.3547 30.448 12.9947 30.3093 13.528 30.032C14.0613 29.7333 14.4987 29.3707 14.84 28.944C15.1813 28.5173 15.4373 28.1013 15.608 27.696C15.7787 27.2907 15.8747 26.96 15.896 26.704C15.896 26.5547 15.992 26.48 16.184 26.48C16.4827 26.48 16.6 26.6613 16.536 27.024C16.4293 27.8773 16.1093 28.624 15.576 29.264C15.0427 29.8827 14.4027 30.3733 13.656 30.736C12.9093 31.0773 12.1413 31.248 11.352 31.248C10.4133 31.248 9.56 31.0773 8.792 30.736C8.024 30.3733 7.40533 29.84 6.936 29.136C6.488 28.4107 6.264 27.5253 6.264 26.48C6.264 25.0933 6.63733 23.856 7.384 22.768C8.13067 21.6587 9.15467 20.72 10.456 19.952C11.7573 19.184 13.2507 18.5973 14.936 18.192C16.6213 17.7867 18.4027 17.584 20.28 17.584C21.7307 17.584 23.192 17.7653 24.664 18.128C26.136 18.4693 27.5333 18.992 28.856 19.696C29.4107 19.0773 29.976 18.5333 30.552 18.064C31.1493 17.5733 31.7573 17.2 32.376 16.944C32.6533 16.8373 32.8773 16.784 33.048 16.784C33.176 16.784 33.24 16.816 33.24 16.88C33.24 16.9867 32.9947 17.2533 32.504 17.68C32.2267 17.936 31.896 18.3307 31.512 18.864C31.128 19.376 30.7333 19.9413 30.328 20.56C31.608 21.392 32.7387 22.4053 33.72 23.6C34.7227 24.7733 35.512 26.1173 36.088 27.632C36.664 29.1253 36.952 30.7893 36.952 32.624C36.952 34.416 36.6427 35.984 36.024 37.328C35.4053 38.6507 34.5627 39.7493 33.496 40.624C32.4293 41.4987 31.2027 42.1493 29.816 42.576C28.4293 43.024 26.968 43.248 25.432 43.248C23.6187 43.248 21.9333 43.0027 20.376 42.512C18.84 42.0213 17.4107 41.4667 16.088 40.848C15.0427 41.68 13.9547 42.3093 12.824 42.736C11.7147 43.1627 10.5307 43.376 9.272 43.376ZM28.152 23.984C27.704 24.688 27.16 25.584 26.52 26.672C25.88 27.7387 25.1653 28.9013 24.376 30.16C23.5867 31.4187 22.7653 32.6773 21.912 33.936C21.0587 35.1947 20.1947 36.3787 19.32 37.488C18.4667 38.576 17.6347 39.4933 16.824 40.24C17.9547 40.7947 19.2027 41.2747 20.568 41.68C21.9333 42.0853 23.48 42.288 25.208 42.288C27.1707 42.288 28.8773 41.8827 30.328 41.072C31.7787 40.24 32.9093 39.12 33.72 37.712C34.5307 36.2827 34.936 34.672 34.936 32.88C34.936 30.5547 34.4453 28.4427 33.464 26.544C32.4827 24.624 31.1707 23.024 29.528 21.744C29.2507 22.192 28.9947 22.6187 28.76 23.024C28.5253 23.408 28.3227 23.728 28.152 23.984ZM9.272 42.384C10.36 42.448 11.416 42.256 12.44 41.808C13.4853 41.3387 14.3493 40.8373 15.032 40.304C13.752 39.6853 12.568 39.12 11.48 38.608C10.4133 38.096 9.42133 37.84 8.504 37.84C7.75733 37.84 7.18133 38.064 6.776 38.512C6.37067 38.9387 6.168 39.4187 6.168 39.952C6.168 40.6347 6.43467 41.2 6.968 41.648C7.52267 42.096 8.29067 42.3413 9.272 42.384ZM41.1295 42.128C40.3402 42.128 39.6255 41.872 38.9855 41.36C38.3668 40.848 38.0575 40.0693 38.0575 39.024C38.0575 38.1493 38.2495 37.2213 38.6335 36.24C39.0388 35.2587 39.5615 34.3413 40.2015 33.488C40.8628 32.6133 41.5882 31.9093 42.3775 31.376C43.1882 30.8213 43.9988 30.544 44.8095 30.544C45.2148 30.544 45.6095 30.6613 45.9935 30.896C46.3775 31.1307 46.5695 31.536 46.5695 32.112C46.5695 32.6453 46.3668 33.232 45.9615 33.872C45.5562 34.512 44.9802 35.1093 44.2335 35.664C43.9135 35.8987 43.5082 36.1227 43.0175 36.336C42.5268 36.5493 42.0362 36.7307 41.5455 36.88C41.0548 37.008 40.6495 37.072 40.3295 37.072C40.2228 37.328 40.1162 37.6693 40.0095 38.096C39.9242 38.5227 39.8815 38.96 39.8815 39.408C39.8815 39.9413 39.9882 40.4213 40.2015 40.848C40.4148 41.2747 40.8095 41.488 41.3855 41.488C42.0895 41.488 42.7402 41.2853 43.3375 40.88C43.9562 40.4747 44.5002 39.9627 44.9695 39.344C45.4602 38.7253 45.8762 38.096 46.2175 37.456C46.5588 36.816 46.8255 36.272 47.0175 35.824C47.2735 35.824 47.4015 35.92 47.4015 36.112C47.1242 36.7093 46.8042 37.36 46.4415 38.064C46.1002 38.768 45.6842 39.4293 45.1935 40.048C44.7242 40.6453 44.1482 41.1467 43.4655 41.552C42.8042 41.936 42.0255 42.128 41.1295 42.128ZM40.5535 36.496C40.8522 36.496 41.3535 36.3893 42.0575 36.176C42.7615 35.9413 43.4015 35.5787 43.9775 35.088C44.5322 34.5973 44.9588 34.064 45.2575 33.488C45.5562 32.8907 45.7055 32.3893 45.7055 31.984C45.7055 31.5147 45.5348 31.28 45.1935 31.28C44.9375 31.28 44.5855 31.4507 44.1375 31.792C43.6895 32.1333 43.1348 32.7093 42.4735 33.52C42.0682 34.032 41.6842 34.5867 41.3215 35.184C40.9588 35.7813 40.7028 36.2187 40.5535 36.496ZM48.069 42.224C47.4077 42.224 46.949 42.0533 46.693 41.712C46.437 41.3707 46.309 40.9333 46.309 40.4C46.309 39.8453 46.405 39.216 46.597 38.512C46.789 37.808 47.045 37.0187 47.365 36.144C47.1303 36.144 47.013 36.0373 47.013 35.824C47.1837 35.3973 47.365 34.9173 47.557 34.384C47.7703 33.8293 47.877 33.2107 47.877 32.528C47.877 32.1867 47.8343 31.8987 47.749 31.664C47.6637 31.4293 47.5357 31.2907 47.365 31.248C47.365 31.248 47.4717 31.2267 47.685 31.184C47.9197 31.1413 48.165 31.0987 48.421 31.056C48.677 31.0133 48.8477 30.992 48.933 30.992C49.061 30.9707 49.1783 30.96 49.285 30.96C49.3917 30.9387 49.4877 30.928 49.573 30.928C49.7863 30.928 49.925 31.0133 49.989 31.184C50.0743 31.3547 50.1063 31.728 50.085 32.304C50.0637 32.8373 49.957 33.488 49.765 34.256C49.573 35.0027 49.3703 35.6533 49.157 36.208C48.8797 36.9333 48.6237 37.6693 48.389 38.416C48.1543 39.1627 48.037 39.7813 48.037 40.272C48.037 40.6987 48.1543 40.976 48.389 41.104C48.5597 41.168 48.709 41.2 48.837 41.2C49.3277 41.2 49.8077 40.9653 50.277 40.496C50.7463 40.0267 51.1837 39.4613 51.589 38.8C52.0157 38.1173 52.3677 37.4667 52.645 36.848C52.517 36.3573 52.453 35.7707 52.453 35.088C52.453 34.3627 52.5383 33.6267 52.709 32.88C52.8797 32.1333 53.1463 31.5147 53.509 31.024C53.8717 30.512 54.341 30.256 54.917 30.256C55.3223 30.256 55.525 30.4373 55.525 30.8C55.525 30.8853 55.4183 31.248 55.205 31.888C55.013 32.528 54.757 33.2853 54.437 34.16C54.117 35.0347 53.7757 35.8773 53.413 36.688C53.3277 36.8587 53.253 37.0293 53.189 37.2C53.2743 37.5627 53.4343 37.8613 53.669 38.096C53.9037 38.3093 54.1917 38.416 54.533 38.416C54.9597 38.416 55.3543 38.224 55.717 37.84C56.101 37.4347 56.4957 36.7627 56.901 35.824C57.157 35.824 57.285 35.92 57.285 36.112C56.9437 36.9653 56.5277 37.648 56.037 38.16C55.5677 38.672 55.0343 38.928 54.437 38.928C53.7117 38.928 53.189 38.5547 52.869 37.808C52.5063 38.5547 52.0797 39.2693 51.589 39.952C51.0983 40.6133 50.5543 41.1573 49.957 41.584C49.381 42.0107 48.7517 42.224 48.069 42.224ZM66.872 45.424C64.9307 45.424 63.2027 45.0293 61.688 44.24C60.1947 43.472 59.0213 42.3307 58.168 40.816C57.336 39.28 56.92 37.4027 56.92 35.184C56.92 33.8613 57.0907 32.5387 57.432 31.216C57.7733 29.8933 58.232 28.624 58.808 27.408C59.4053 26.192 60.0667 25.072 60.792 24.048C60.472 22.768 60.312 21.3813 60.312 19.888C60.312 18.7573 60.44 17.68 60.696 16.656C60.7813 16.3573 60.9307 16.208 61.144 16.208C61.3147 16.208 61.3893 16.3147 61.368 16.528C61.304 16.9547 61.2507 17.4133 61.208 17.904C61.1653 18.3733 61.144 18.9387 61.144 19.6C61.144 20.8373 61.2613 22.0107 61.496 23.12C61.7093 22.8427 61.9227 22.5867 62.136 22.352C63.0107 21.392 64.0453 20.496 65.24 19.664C66.4347 18.8107 67.7573 18.128 69.208 17.616C70.68 17.104 72.2373 16.848 73.88 16.848C75.416 16.848 76.824 17.136 78.104 17.712C79.384 18.2667 80.408 19.0773 81.176 20.144C81.9653 21.1893 82.36 22.4587 82.36 23.952C82.36 24.8907 82.104 25.8507 81.592 26.832C81.1013 27.8133 80.3867 28.72 79.448 29.552C78.5307 30.3627 77.4107 31.024 76.088 31.536C74.7867 32.048 73.3253 32.304 71.704 32.304C69.5707 32.304 67.6187 31.8347 65.848 30.896C64.0773 29.9573 62.7013 28.528 61.72 26.608C60.8667 28.1227 60.2373 29.6587 59.832 31.216C59.4267 32.7733 59.224 34.256 59.224 35.664C59.224 37.712 59.5653 39.376 60.248 40.656C60.9307 41.936 61.8693 42.8747 63.064 43.472C64.28 44.0907 65.6667 44.4 67.224 44.4C69.9973 44.4 72.4293 43.696 74.52 42.288C76.632 40.9013 78.3707 38.7467 79.736 35.824C79.992 35.824 80.12 35.92 80.12 36.112C78.7973 39.2693 76.984 41.6053 74.68 43.12C72.3973 44.656 69.7947 45.424 66.872 45.424ZM63.096 24.464C62.8187 24.848 62.552 25.2427 62.296 25.648C63.0427 27.3973 64.184 28.8053 65.72 29.872C67.256 30.9387 69.1867 31.472 71.512 31.472C72.984 31.472 74.296 31.248 75.448 30.8C76.6213 30.352 77.6027 29.7547 78.392 29.008C79.2027 28.2613 79.8213 27.44 80.248 26.544C80.6747 25.6267 80.888 24.7093 80.888 23.792C80.888 22.6613 80.5787 21.6693 79.96 20.816C79.3627 19.9627 78.5413 19.3013 77.496 18.832C76.4507 18.3413 75.2667 18.096 73.944 18.096C72.6213 18.096 71.288 18.3733 69.944 18.928C68.6213 19.4827 67.3627 20.24 66.168 21.2C64.9947 22.16 63.9707 23.248 63.096 24.464ZM83.5268 42C82.6521 42 82.0014 41.6907 81.5748 41.072C81.1694 40.432 80.9668 39.664 80.9668 38.768C80.9668 37.936 81.1268 37.072 81.4468 36.176C81.7881 35.1947 82.2574 34.2987 82.8548 33.488C83.4734 32.6773 84.1454 32.0267 84.8708 31.536C85.6174 31.024 86.3534 30.768 87.0788 30.768C87.9534 30.768 88.5934 31.0667 88.9988 31.664C89.4254 32.2613 89.6388 33.0187 89.6388 33.936C89.6388 34.576 89.5321 35.248 89.3188 35.952C89.1054 36.656 88.8174 37.3493 88.4548 38.032C88.7321 38.3093 89.1268 38.448 89.6388 38.448C90.2361 38.448 90.7481 38.256 91.1748 37.872C91.6014 37.488 92.0174 36.8053 92.4228 35.824C92.6788 35.824 92.8068 35.92 92.8068 36.112C92.4014 37.0933 91.9321 37.8187 91.3988 38.288C90.8868 38.736 90.2254 38.9493 89.4148 38.928C88.9241 38.928 88.5188 38.7893 88.1988 38.512C87.6014 39.4933 86.8868 40.3253 86.0548 41.008C85.2441 41.6693 84.4014 42 83.5268 42ZM83.9748 41.296C84.4654 41.296 84.9561 41.0933 85.4468 40.688C85.9374 40.2613 86.3854 39.7813 86.7908 39.248C87.1961 38.7147 87.4841 38.256 87.6548 37.872C87.3134 37.2533 87.1108 36.7947 87.0468 36.496C87.0041 36.176 86.9828 35.9413 86.9828 35.792C86.9828 35.3867 87.0894 35.0773 87.3028 34.864C87.5161 34.6507 87.7294 34.544 87.9427 34.544C88.2414 34.544 88.4974 34.672 88.7108 34.928C88.7534 34.6933 88.7854 34.48 88.8068 34.288C88.8281 34.0747 88.8388 33.872 88.8388 33.68C88.8388 33.1253 88.7321 32.6773 88.5188 32.336C88.3268 31.9733 88.0174 31.792 87.5908 31.792C87.1428 31.792 86.6734 31.984 86.1828 32.368C85.6921 32.752 85.2228 33.264 84.7748 33.904C84.3481 34.544 83.9748 35.2587 83.6548 36.048C83.3774 36.7093 83.1641 37.3387 83.0148 37.936C82.8654 38.512 82.7908 39.0453 82.7908 39.536C82.7908 40.0693 82.8868 40.496 83.0788 40.816C83.2708 41.136 83.5694 41.296 83.9748 41.296ZM89.3472 42.256C90.1152 40.6987 90.8513 39.1627 91.5553 37.648C92.2593 36.112 92.9846 34.6507 93.7313 33.264C94.1579 32.496 94.5206 31.9627 94.8193 31.664C95.1179 31.344 95.5126 31.184 96.0033 31.184C96.1739 31.184 96.3553 31.216 96.5473 31.28C96.7393 31.3227 96.9313 31.344 97.1233 31.344C97.2513 31.344 97.3473 31.3333 97.4113 31.312C97.1126 31.4827 96.7179 31.9093 96.2273 32.592C95.7579 33.2533 95.2779 34.0213 94.7873 34.896C94.2966 35.7707 93.8593 36.592 93.4753 37.36C93.8806 36.8693 94.3073 36.3787 94.7552 35.888C95.2033 35.3973 95.6939 34.928 96.2273 34.48C96.7393 34.032 97.3473 33.5733 98.0513 33.104C98.7766 32.6133 99.4806 32.208 100.163 31.888C100.846 31.568 101.39 31.408 101.795 31.408C101.945 31.408 102.051 31.4187 102.115 31.44C102.115 31.44 101.998 31.6533 101.763 32.08C101.529 32.4853 101.23 33.0293 100.867 33.712C100.526 34.3733 100.174 35.088 99.8113 35.856C99.4486 36.6027 99.1179 37.328 98.8193 38.032C98.5419 38.7147 98.3606 39.2907 98.2753 39.76C98.2113 40.0373 98.1793 40.2933 98.1793 40.528C98.1793 40.8693 98.2433 41.0933 98.3713 41.2C98.4993 41.3067 98.6379 41.36 98.7873 41.36C99.1926 41.36 99.6086 41.1787 100.035 40.816C100.462 40.4533 100.867 39.9947 101.251 39.44C101.657 38.864 102.03 38.256 102.371 37.616C102.713 36.976 103.001 36.3787 103.235 35.824C103.491 35.824 103.619 35.92 103.619 36.112C103.385 36.688 103.086 37.328 102.723 38.032C102.382 38.7147 101.987 39.3653 101.539 39.984C101.113 40.6027 100.633 41.1147 100.099 41.52C99.5659 41.9253 98.9899 42.128 98.3713 42.128C97.9446 42.128 97.4966 41.9787 97.0273 41.68C96.5793 41.3813 96.3553 40.8267 96.3553 40.016C96.3553 39.7813 96.3766 39.536 96.4193 39.28C96.4619 39.0027 96.5366 38.704 96.6433 38.384C96.8139 37.9573 97.0166 37.4987 97.2513 37.008C97.4859 36.5173 97.8699 35.8453 98.4033 34.992C98.5526 34.7573 98.6379 34.576 98.6593 34.448C98.7019 34.32 98.7233 34.2133 98.7233 34.128C98.7233 33.872 98.6059 33.744 98.3713 33.744C98.1793 33.744 97.8913 33.8507 97.5073 34.064C97.1446 34.2773 96.6859 34.6507 96.1313 35.184C95.5979 35.696 94.9579 36.4213 94.2113 37.36C93.4859 38.2987 92.6433 39.6853 91.6833 41.52C91.5339 41.7973 91.3633 41.9467 91.1713 41.968C91.0006 41.9893 90.7553 42.0107 90.4352 42.032C90.2219 42.0533 90.0192 42.064 89.8272 42.064C89.6352 42.0853 89.4752 42.1493 89.3472 42.256Z" fill="black"/>
</g>
<defs>
<filter id="filter0_d_107_228" x="0.0878906" y="16.208" width="107.531" height="37.216" filterUnits="userSpaceOnUse" color-interpolation-filters="sRGB">
<feFlood flood-opacity="0" result="BackgroundImageFix"/>
<feColorMatrix in="SourceAlpha" type="matrix" values="0 0 0 0 0 0 0 0 0 0 0 0 0 0 0 0 0 0 127 0" result="hardAlpha"/>
<feOffset dy="4"/>
<feGaussianBlur stdDeviation="2"/>
<feComposite in2="hardAlpha" operator="out"/>
<feColorMatrix type="matrix" values="0 0 0 0 0 0 0 0 0 0 0 0 0 0 0 0 0 0 0.25 0"/>
<feBlend mode="normal" in2="BackgroundImageFix" result="effect1_dropShadow_107_228"/>
<feBlend mode="normal" in="SourceGraphic" in2="effect1_dropShadow_107_228" result="shape"/>
</filter>
</defs>
</svg>
