<svg width="280" height="62" viewBox="0 0 280 62" fill="none" xmlns="http://www.w3.org/2000/svg">
<path d="M11.956 54.623C10.2887 54.623 8.70267 54.379 7.198 53.891C5.69333 53.403 4.453 52.671 3.477 51.695C2.54167 50.719 2.074 49.499 2.074 48.035C2.074 46.5303 2.72467 45.168 4.026 43.948C5.368 42.728 7.259 42.118 9.699 42.118C12.261 42.118 14.6807 42.7077 16.958 43.887C19.276 45.0257 21.716 46.266 24.278 47.608C26.4333 45.534 28.3447 43.1347 30.012 40.41C31.72 37.6447 33.3467 34.737 34.892 31.687C36.478 28.637 38.1047 25.6073 39.772 22.598C41.4393 19.548 43.31 16.7217 45.384 14.119C45.75 13.6717 46.116 13.2243 46.482 12.777C46.848 12.289 47.2343 11.8213 47.641 11.374C45.445 10.0727 43.0863 9.07633 40.565 8.385C38.0437 7.653 35.441 7.287 32.757 7.287C29.4223 7.287 26.3317 7.714 23.485 8.568C20.6383 9.422 18.1577 10.581 16.043 12.045C13.969 13.4683 12.3423 15.095 11.163 16.925C9.98367 18.7143 9.394 20.5647 9.394 22.476C9.394 24.184 9.73967 25.6073 10.431 26.746C11.163 27.844 12.078 28.6573 13.176 29.186C14.274 29.7147 15.3517 29.979 16.409 29.979C17.8323 29.979 19.0523 29.7147 20.069 29.186C21.0857 28.6167 21.9193 27.9253 22.57 27.112C23.2207 26.2987 23.7087 25.5057 24.034 24.733C24.3593 23.9603 24.5423 23.33 24.583 22.842C24.583 22.5573 24.766 22.415 25.132 22.415C25.7013 22.415 25.925 22.7607 25.803 23.452C25.5997 25.0787 24.9897 26.502 23.973 27.722C22.9563 28.9013 21.7363 29.8367 20.313 30.528C18.8897 31.1787 17.4257 31.504 15.921 31.504C14.1317 31.504 12.505 31.1787 11.041 30.528C9.577 29.8367 8.39767 28.82 7.503 27.478C6.649 26.0953 6.222 24.4077 6.222 22.415C6.222 19.7717 6.93367 17.413 8.357 15.339C9.78033 13.2243 11.7323 11.435 14.213 9.971C16.6937 8.507 19.5403 7.38867 22.753 6.616C25.9657 5.84333 29.3613 5.457 32.94 5.457C35.7053 5.457 38.491 5.80267 41.297 6.494C44.103 7.14466 46.7667 8.141 49.288 9.483C50.3453 8.30367 51.423 7.26667 52.521 6.372C53.6597 5.43667 54.8187 4.725 55.998 4.237C56.5267 4.03366 56.9537 3.932 57.279 3.932C57.523 3.932 57.645 3.993 57.645 4.115C57.645 4.31833 57.1773 4.82666 56.242 5.64C55.7133 6.128 55.083 6.88033 54.351 7.897C53.619 8.873 52.8667 9.95066 52.094 11.13C54.534 12.716 56.6893 14.6477 58.56 16.925C60.4713 19.1617 61.976 21.7237 63.074 24.611C64.172 27.4577 64.721 30.6297 64.721 34.127C64.721 37.543 64.1313 40.532 62.952 43.094C61.7727 45.6153 60.1663 47.7097 58.133 49.377C56.0997 51.0443 53.7613 52.2847 51.118 53.098C48.4747 53.952 45.689 54.379 42.761 54.379C39.3043 54.379 36.0917 53.9113 33.123 52.976C30.195 52.0407 27.4703 50.9833 24.949 49.804C22.9563 51.39 20.8823 52.5897 18.727 53.403C16.6123 54.2163 14.3553 54.623 11.956 54.623ZM47.946 17.657C47.092 18.999 46.055 20.707 44.835 22.781C43.615 24.8143 42.2527 27.0307 40.748 29.43C39.2433 31.8293 37.6777 34.2287 36.051 36.628C34.4243 39.0273 32.7773 41.2843 31.11 43.399C29.4833 45.473 27.8973 47.2217 26.352 48.645C28.5073 49.7023 30.8863 50.6173 33.489 51.39C36.0917 52.1627 39.04 52.549 42.334 52.549C46.0753 52.549 49.3287 51.7763 52.094 50.231C54.8593 48.645 57.0147 46.51 58.56 43.826C60.1053 41.1013 60.878 38.031 60.878 34.615C60.878 30.1823 59.9427 26.1563 58.072 22.537C56.2013 18.877 53.7003 15.827 50.569 13.387C50.0403 14.241 49.5523 15.0543 49.105 15.827C48.6577 16.559 48.2713 17.169 47.946 17.657ZM11.956 52.732C14.03 52.854 16.043 52.488 17.995 51.634C19.9877 50.7393 21.6347 49.7837 22.936 48.767C20.496 47.5877 18.239 46.51 16.165 45.534C14.1317 44.558 12.2407 44.07 10.492 44.07C9.06867 44.07 7.97067 44.497 7.198 45.351C6.42533 46.1643 6.039 47.0793 6.039 48.096C6.039 49.3973 6.54733 50.475 7.564 51.329C8.62133 52.183 10.0853 52.6507 11.956 52.732ZM72.6844 52.244C71.1797 52.244 69.8174 51.756 68.5974 50.78C67.418 49.804 66.8284 48.3197 66.8284 46.327C66.8284 44.6597 67.1944 42.8907 67.9264 41.02C68.699 39.1493 69.6954 37.4007 70.9154 35.774C72.176 34.1067 73.5587 32.7647 75.0634 31.748C76.6087 30.6907 78.154 30.162 79.6994 30.162C80.472 30.162 81.2244 30.3857 81.9564 30.833C82.6884 31.2803 83.0544 32.053 83.0544 33.151C83.0544 34.1677 82.668 35.286 81.8954 36.506C81.1227 37.726 80.0247 38.8647 78.6014 39.922C77.9914 40.3693 77.2187 40.7963 76.2834 41.203C75.348 41.6097 74.4127 41.9553 73.4774 42.24C72.542 42.484 71.7694 42.606 71.1594 42.606C70.956 43.094 70.7527 43.7447 70.5494 44.558C70.3867 45.3713 70.3054 46.205 70.3054 47.059C70.3054 48.0757 70.5087 48.9907 70.9154 49.804C71.322 50.6173 72.0744 51.024 73.1724 51.024C74.5144 51.024 75.7547 50.6377 76.8934 49.865C78.0727 49.0923 79.1097 48.1163 80.0044 46.937C80.9397 45.7577 81.7327 44.558 82.3834 43.338C83.034 42.118 83.5424 41.081 83.9084 40.227C84.3964 40.227 84.6404 40.41 84.6404 40.776C84.1117 41.9147 83.5017 43.155 82.8104 44.497C82.1597 45.839 81.3667 47.0997 80.4314 48.279C79.5367 49.4177 78.4387 50.3733 77.1374 51.146C75.8767 51.878 74.3924 52.244 72.6844 52.244ZM71.5864 41.508C72.1557 41.508 73.1114 41.3047 74.4534 40.898C75.7954 40.4507 77.0154 39.7593 78.1134 38.824C79.1707 37.8887 79.984 36.872 80.5534 35.774C81.1227 34.6353 81.4074 33.6797 81.4074 32.907C81.4074 32.0123 81.082 31.565 80.4314 31.565C79.9434 31.565 79.2724 31.8903 78.4184 32.541C77.5644 33.1917 76.507 34.2897 75.2464 35.835C74.4737 36.811 73.7417 37.8683 73.0504 39.007C72.359 40.1457 71.871 40.9793 71.5864 41.508ZM85.9128 52.427C84.6521 52.427 83.7778 52.1017 83.2898 51.451C82.8018 50.8003 82.5578 49.9667 82.5578 48.95C82.5578 47.8927 82.7408 46.693 83.1068 45.351C83.4728 44.009 83.9608 42.5043 84.5708 40.837C84.1234 40.837 83.8998 40.6337 83.8998 40.227C84.2251 39.4137 84.5708 38.4987 84.9368 37.482C85.3434 36.4247 85.5468 35.2453 85.5468 33.944C85.5468 33.2933 85.4654 32.7443 85.3028 32.297C85.1401 31.8497 84.8961 31.5853 84.5708 31.504C84.5708 31.504 84.7741 31.4633 85.1808 31.382C85.6281 31.3007 86.0958 31.2193 86.5838 31.138C87.0718 31.0567 87.3971 31.016 87.5598 31.016C87.8038 30.9753 88.0274 30.955 88.2308 30.955C88.4341 30.9143 88.6171 30.894 88.7798 30.894C89.1864 30.894 89.4508 31.0567 89.5728 31.382C89.7354 31.7073 89.7964 32.419 89.7558 33.517C89.7151 34.5337 89.5118 35.774 89.1458 37.238C88.7798 38.6613 88.3934 39.9017 87.9868 40.959C87.4581 42.3417 86.9701 43.7447 86.5228 45.168C86.0754 46.5913 85.8518 47.7707 85.8518 48.706C85.8518 49.5193 86.0754 50.048 86.5228 50.292C86.8481 50.414 87.1328 50.475 87.3768 50.475C88.3121 50.475 89.2271 50.0277 90.1218 49.133C91.0164 48.2383 91.8501 47.1607 92.6228 45.9C93.4361 44.5987 94.1071 43.3583 94.6358 42.179C94.3918 41.2437 94.2698 40.1253 94.2698 38.824C94.2698 37.4413 94.4324 36.0383 94.7578 34.615C95.0831 33.1917 95.5914 32.0123 96.2828 31.077C96.9741 30.101 97.8688 29.613 98.9668 29.613C99.7394 29.613 100.126 29.9587 100.126 30.65C100.126 30.8127 99.9224 31.504 99.5158 32.724C99.1498 33.944 98.6618 35.3877 98.0518 37.055C97.4418 38.7223 96.7911 40.3287 96.0998 41.874C95.9371 42.1993 95.7948 42.5247 95.6728 42.85C95.8354 43.5413 96.1404 44.1107 96.5878 44.558C97.0351 44.9647 97.5841 45.168 98.2348 45.168C99.0481 45.168 99.8004 44.802 100.492 44.07C101.224 43.2973 101.976 42.0163 102.749 40.227C103.237 40.227 103.481 40.41 103.481 40.776C102.83 42.4027 102.037 43.704 101.102 44.68C100.207 45.656 99.1904 46.144 98.0518 46.144C96.6691 46.144 95.6728 45.4323 95.0628 44.009C94.3714 45.4323 93.5581 46.7947 92.6228 48.096C91.6874 49.3567 90.6504 50.3937 89.5118 51.207C88.4138 52.0203 87.2141 52.427 85.9128 52.427ZM121.756 58.527C118.055 58.527 114.761 57.7747 111.874 56.27C109.027 54.806 106.791 52.6303 105.164 49.743C103.578 46.815 102.785 43.2363 102.785 39.007C102.785 36.4857 103.11 33.9643 103.761 31.443C104.412 28.9217 105.286 26.502 106.384 24.184C107.523 21.866 108.783 19.731 110.166 17.779C109.556 15.339 109.251 12.6957 109.251 9.849C109.251 7.69367 109.495 5.64 109.983 3.688C110.146 3.11866 110.43 2.834 110.837 2.834C111.162 2.834 111.305 3.03733 111.264 3.444C111.142 4.25733 111.04 5.13167 110.959 6.067C110.878 6.96167 110.837 8.03933 110.837 9.3C110.837 11.6587 111.061 13.8953 111.508 16.01C111.915 15.4813 112.321 14.9933 112.728 14.546C114.395 12.716 116.368 11.008 118.645 9.422C120.922 7.79533 123.444 6.494 126.209 5.518C129.015 4.542 131.984 4.054 135.115 4.054C138.043 4.054 140.727 4.603 143.167 5.701C145.607 6.75833 147.559 8.30366 149.023 10.337C150.528 12.3297 151.28 14.7493 151.28 17.596C151.28 19.3853 150.792 21.2153 149.816 23.086C148.881 24.9567 147.518 26.685 145.729 28.271C143.98 29.8163 141.845 31.077 139.324 32.053C136.843 33.029 134.058 33.517 130.967 33.517C126.9 33.517 123.179 32.6223 119.804 30.833C116.429 29.0437 113.806 26.319 111.935 22.659C110.308 25.5463 109.109 28.4743 108.336 31.443C107.563 34.4117 107.177 37.238 107.177 39.922C107.177 43.826 107.828 46.998 109.129 49.438C110.43 51.878 112.22 53.6673 114.497 54.806C116.815 55.9853 119.458 56.575 122.427 56.575C127.714 56.575 132.35 55.233 136.335 52.549C140.361 49.9057 143.675 45.7983 146.278 40.227C146.766 40.227 147.01 40.41 147.01 40.776C144.489 46.7947 141.032 51.2477 136.64 54.135C132.289 57.063 127.327 58.527 121.756 58.527ZM114.558 18.572C114.029 19.304 113.521 20.0563 113.033 20.829C114.456 24.1637 116.632 26.8477 119.56 28.881C122.488 30.9143 126.168 31.931 130.601 31.931C133.407 31.931 135.908 31.504 138.104 30.65C140.341 29.796 142.211 28.6573 143.716 27.234C145.261 25.8107 146.441 24.245 147.254 22.537C148.067 20.7883 148.474 19.0397 148.474 17.291C148.474 15.1357 147.884 13.2447 146.705 11.618C145.566 9.99133 144.001 8.73067 142.008 7.836C140.015 6.90066 137.758 6.433 135.237 6.433C132.716 6.433 130.174 6.96166 127.612 8.019C125.091 9.07633 122.691 10.52 120.414 12.35C118.177 14.18 116.225 16.254 114.558 18.572ZM153.504 52C151.837 52 150.596 51.4103 149.783 50.231C149.01 49.011 148.624 47.547 148.624 45.839C148.624 44.253 148.929 42.606 149.539 40.898C150.19 39.0273 151.084 37.3193 152.223 35.774C153.402 34.2287 154.683 32.9883 156.066 32.053C157.489 31.077 158.892 30.589 160.275 30.589C161.942 30.589 163.162 31.1583 163.935 32.297C164.748 33.4357 165.155 34.8793 165.155 36.628C165.155 37.848 164.952 39.129 164.545 40.471C164.138 41.813 163.589 43.1347 162.898 44.436C163.427 44.9647 164.179 45.229 165.155 45.229C166.294 45.229 167.27 44.863 168.083 44.131C168.896 43.399 169.689 42.0977 170.462 40.227C170.95 40.227 171.194 40.41 171.194 40.776C170.421 42.6467 169.527 44.0293 168.51 44.924C167.534 45.778 166.273 46.1847 164.728 46.144C163.793 46.144 163.02 45.8797 162.41 45.351C161.271 47.2217 159.909 48.8077 158.323 50.109C156.778 51.3697 155.171 52 153.504 52ZM154.358 50.658C155.293 50.658 156.229 50.2717 157.164 49.499C158.099 48.6857 158.953 47.7707 159.726 46.754C160.499 45.7373 161.048 44.863 161.373 44.131C160.722 42.9517 160.336 42.0773 160.214 41.508C160.133 40.898 160.092 40.4507 160.092 40.166C160.092 39.3933 160.295 38.8037 160.702 38.397C161.109 37.9903 161.515 37.787 161.922 37.787C162.491 37.787 162.979 38.031 163.386 38.519C163.467 38.0717 163.528 37.665 163.569 37.299C163.61 36.8923 163.63 36.506 163.63 36.14C163.63 35.0827 163.427 34.2287 163.02 33.578C162.654 32.8867 162.064 32.541 161.251 32.541C160.397 32.541 159.502 32.907 158.567 33.639C157.632 34.371 156.737 35.347 155.883 36.567C155.07 37.787 154.358 39.1493 153.748 40.654C153.219 41.9147 152.813 43.1143 152.528 44.253C152.243 45.351 152.101 46.3677 152.101 47.303C152.101 48.3197 152.284 49.133 152.65 49.743C153.016 50.353 153.585 50.658 154.358 50.658ZM164.599 52.488C166.063 49.5193 167.466 46.5913 168.808 43.704C170.15 40.776 171.533 37.9903 172.956 35.347C173.77 33.883 174.461 32.8663 175.03 32.297C175.6 31.687 176.352 31.382 177.287 31.382C177.613 31.382 177.958 31.443 178.324 31.565C178.69 31.6463 179.056 31.687 179.422 31.687C179.666 31.687 179.849 31.6667 179.971 31.626C179.402 31.9513 178.65 32.7647 177.714 34.066C176.82 35.3267 175.905 36.7907 174.969 38.458C174.034 40.1253 173.2 41.691 172.468 43.155C173.241 42.2197 174.054 41.2843 174.908 40.349C175.762 39.4137 176.698 38.519 177.714 37.665C178.69 36.811 179.849 35.9367 181.191 35.042C182.574 34.1067 183.916 33.334 185.217 32.724C186.519 32.114 187.556 31.809 188.328 31.809C188.613 31.809 188.816 31.8293 188.938 31.87C188.938 31.87 188.715 32.2767 188.267 33.09C187.82 33.8627 187.251 34.8997 186.559 36.201C185.909 37.4617 185.238 38.824 184.546 40.288C183.855 41.7113 183.225 43.094 182.655 44.436C182.127 45.7373 181.781 46.8353 181.618 47.73C181.496 48.2587 181.435 48.7467 181.435 49.194C181.435 49.8447 181.557 50.2717 181.801 50.475C182.045 50.6783 182.31 50.78 182.594 50.78C183.367 50.78 184.16 50.4343 184.973 49.743C185.787 49.0517 186.559 48.1773 187.291 47.12C188.064 46.022 188.776 44.863 189.426 43.643C190.077 42.423 190.626 41.2843 191.073 40.227C191.561 40.227 191.805 40.41 191.805 40.776C191.358 41.874 190.789 43.094 190.097 44.436C189.447 45.7373 188.694 46.9777 187.84 48.157C187.027 49.3363 186.112 50.3123 185.095 51.085C184.079 51.8577 182.981 52.244 181.801 52.244C180.988 52.244 180.134 51.9593 179.239 51.39C178.385 50.8207 177.958 49.7633 177.958 48.218C177.958 47.7707 177.999 47.303 178.08 46.815C178.162 46.2863 178.304 45.717 178.507 45.107C178.833 44.2937 179.219 43.4193 179.666 42.484C180.114 41.5487 180.846 40.2677 181.862 38.641C182.147 38.1937 182.31 37.848 182.35 37.604C182.432 37.36 182.472 37.1567 182.472 36.994C182.472 36.506 182.249 36.262 181.801 36.262C181.435 36.262 180.886 36.4653 180.154 36.872C179.463 37.2787 178.589 37.9903 177.531 39.007C176.515 39.983 175.295 41.3657 173.871 43.155C172.489 44.9443 170.882 47.5877 169.052 51.085C168.768 51.6137 168.442 51.8983 168.076 51.939C167.751 51.9797 167.283 52.0203 166.673 52.061C166.267 52.1017 165.88 52.122 165.514 52.122C165.148 52.1627 164.843 52.2847 164.599 52.488ZM185.211 52.488C186.675 49.5193 188.078 46.5913 189.42 43.704C190.762 40.776 192.144 37.9903 193.568 35.347C194.381 33.883 195.072 32.8663 195.642 32.297C196.211 31.687 196.963 31.382 197.899 31.382C198.224 31.382 198.57 31.443 198.936 31.565C199.302 31.6463 199.668 31.687 200.034 31.687C200.278 31.687 200.461 31.6667 200.583 31.626C200.013 31.9513 199.261 32.7647 198.326 34.066C197.431 35.3267 196.516 36.7907 195.581 38.458C194.645 40.1253 193.812 41.691 193.08 43.155C193.852 42.2197 194.666 41.2843 195.52 40.349C196.374 39.4137 197.309 38.519 198.326 37.665C199.302 36.811 200.461 35.9367 201.803 35.042C203.185 34.1067 204.527 33.334 205.829 32.724C207.13 32.114 208.167 31.809 208.94 31.809C209.224 31.809 209.428 31.8293 209.55 31.87C209.55 31.87 209.326 32.2767 208.879 33.09C208.431 33.8627 207.862 34.8997 207.171 36.201C206.52 37.4617 205.849 38.824 205.158 40.288C204.466 41.7113 203.836 43.094 203.267 44.436C202.738 45.7373 202.392 46.8353 202.23 47.73C202.108 48.2587 202.047 48.7467 202.047 49.194C202.047 49.8447 202.169 50.2717 202.413 50.475C202.657 50.6783 202.921 50.78 203.206 50.78C203.978 50.78 204.771 50.4343 205.585 49.743C206.398 49.0517 207.171 48.1773 207.903 47.12C208.675 46.022 209.387 44.863 210.038 43.643C210.688 42.423 211.237 41.2843 211.685 40.227C212.173 40.227 212.417 40.41 212.417 40.776C211.969 41.874 211.4 43.094 210.709 44.436C210.058 45.7373 209.306 46.9777 208.452 48.157C207.638 49.3363 206.723 50.3123 205.707 51.085C204.69 51.8577 203.592 52.244 202.413 52.244C201.599 52.244 200.745 51.9593 199.851 51.39C198.997 50.8207 198.57 49.7633 198.57 48.218C198.57 47.7707 198.61 47.303 198.692 46.815C198.773 46.2863 198.915 45.717 199.119 45.107C199.444 44.2937 199.83 43.4193 200.278 42.484C200.725 41.5487 201.457 40.2677 202.474 38.641C202.758 38.1937 202.921 37.848 202.962 37.604C203.043 37.36 203.084 37.1567 203.084 36.994C203.084 36.506 202.86 36.262 202.413 36.262C202.047 36.262 201.498 36.4653 200.766 36.872C200.074 37.2787 199.2 37.9903 198.143 39.007C197.126 39.983 195.906 41.3657 194.483 43.155C193.1 44.9443 191.494 47.5877 189.664 51.085C189.379 51.6137 189.054 51.8983 188.688 51.939C188.362 51.9797 187.895 52.0203 187.285 52.061C186.878 52.1017 186.492 52.122 186.126 52.122C185.76 52.1627 185.455 52.2847 185.211 52.488ZM216.07 52.244C214.565 52.244 213.203 51.756 211.983 50.78C210.804 49.804 210.214 48.3197 210.214 46.327C210.214 44.6597 210.58 42.8907 211.312 41.02C212.085 39.1493 213.081 37.4007 214.301 35.774C215.562 34.1067 216.944 32.7647 218.449 31.748C219.994 30.6907 221.54 30.162 223.085 30.162C223.858 30.162 224.61 30.3857 225.342 30.833C226.074 31.2803 226.44 32.053 226.44 33.151C226.44 34.1677 226.054 35.286 225.281 36.506C224.508 37.726 223.41 38.8647 221.987 39.922C221.377 40.3693 220.604 40.7963 219.669 41.203C218.734 41.6097 217.798 41.9553 216.863 42.24C215.928 42.484 215.155 42.606 214.545 42.606C214.342 43.094 214.138 43.7447 213.935 44.558C213.772 45.3713 213.691 46.205 213.691 47.059C213.691 48.0757 213.894 48.9907 214.301 49.804C214.708 50.6173 215.46 51.024 216.558 51.024C217.9 51.024 219.14 50.6377 220.279 49.865C221.458 49.0923 222.495 48.1163 223.39 46.937C224.325 45.7577 225.118 44.558 225.769 43.338C226.42 42.118 226.928 41.081 227.294 40.227C227.782 40.227 228.026 40.41 228.026 40.776C227.497 41.9147 226.887 43.155 226.196 44.497C225.545 45.839 224.752 47.0997 223.817 48.279C222.922 49.4177 221.824 50.3733 220.523 51.146C219.262 51.878 217.778 52.244 216.07 52.244ZM214.972 41.508C215.541 41.508 216.497 41.3047 217.839 40.898C219.181 40.4507 220.401 39.7593 221.499 38.824C222.556 37.8887 223.37 36.872 223.939 35.774C224.508 34.6353 224.793 33.6797 224.793 32.907C224.793 32.0123 224.468 31.565 223.817 31.565C223.329 31.565 222.658 31.8903 221.804 32.541C220.95 33.1917 219.893 34.2897 218.632 35.835C217.859 36.811 217.127 37.8683 216.436 39.007C215.745 40.1457 215.257 40.9793 214.972 41.508ZM232.532 52.244C230.295 52.244 228.628 51.6543 227.53 50.475C226.472 49.2957 225.944 47.7097 225.944 45.717C225.944 44.7817 226.127 43.704 226.493 42.484C226.859 41.264 227.347 40.0237 227.957 38.763C228.567 37.5023 229.238 36.384 229.97 35.408C231.149 33.822 232.45 32.602 233.874 31.748C235.297 30.8533 236.741 30.406 238.205 30.406C239.75 30.406 240.848 30.7517 241.499 31.443C242.19 32.0937 242.536 32.8663 242.536 33.761C242.536 34.615 242.332 35.3877 241.926 36.079C241.519 36.7297 241.051 37.2583 240.523 37.665C240.035 38.0717 239.608 38.275 239.242 38.275C238.916 38.275 238.632 38.153 238.388 37.909C238.713 37.5023 239.059 37.0143 239.425 36.445C239.791 35.8757 240.055 35.3267 240.218 34.798C240.38 34.31 240.462 33.822 240.462 33.334C240.462 32.2767 239.974 31.748 238.998 31.748C237.818 31.748 236.659 32.236 235.521 33.212C234.423 34.188 233.406 35.4487 232.471 36.994C231.576 38.4987 230.844 40.105 230.275 41.813C229.746 43.4803 229.482 45.0257 229.482 46.449C229.482 47.7503 229.746 48.828 230.275 49.682C230.844 50.536 231.759 50.963 233.02 50.963C234.687 50.963 236.151 50.4343 237.412 49.377C238.672 48.279 239.791 46.9167 240.767 45.29C241.743 43.6227 242.597 41.935 243.329 40.227C243.491 40.227 243.654 40.2677 243.817 40.349C243.979 40.3897 244.061 40.532 244.061 40.776C243.247 42.8093 242.292 44.7003 241.194 46.449C240.096 48.1977 238.835 49.6007 237.412 50.658C236.029 51.7153 234.402 52.244 232.532 52.244ZM255.937 19.792C255.408 20.5647 254.819 21.5407 254.168 22.72C253.517 23.8993 252.907 25.038 252.338 26.136C251.809 27.234 251.403 28.0677 251.118 28.637H256.73C256.73 28.7997 256.649 29.064 256.486 29.43C256.364 29.796 256.1 30.0603 255.693 30.223H250.386C249.898 31.321 249.329 32.6427 248.678 34.188C248.068 35.7333 247.458 37.3397 246.848 39.007C246.279 40.6743 245.791 42.24 245.384 43.704C245.018 45.1273 244.835 46.2863 244.835 47.181C244.835 48.401 244.998 49.316 245.323 49.926C245.648 50.4953 246.238 50.78 247.092 50.78C248.19 50.78 249.247 50.2513 250.264 49.194C251.281 48.096 252.236 46.7337 253.131 45.107C254.066 43.4803 254.88 41.8537 255.571 40.227C256.059 40.227 256.303 40.41 256.303 40.776C255.856 41.874 255.307 43.0737 254.656 44.375C254.005 45.6763 253.253 46.937 252.399 48.157C251.586 49.3363 250.65 50.3123 249.593 51.085C248.576 51.817 247.438 52.183 246.177 52.183C244.469 52.183 243.31 51.7153 242.7 50.78C242.09 49.804 241.785 48.5637 241.785 47.059C241.785 45.961 241.988 44.6393 242.395 43.094C242.802 41.508 243.29 39.8813 243.859 38.214C244.469 36.5467 245.059 35.0013 245.628 33.578C246.197 32.114 246.645 30.9957 246.97 30.223H243.066C243.066 29.8977 243.208 29.552 243.493 29.186C243.778 28.82 244.083 28.637 244.408 28.637H247.641C247.966 27.9863 248.332 27.173 248.739 26.197C249.186 25.221 249.776 24.1433 250.508 22.964C251.118 21.988 251.891 21.2153 252.826 20.646C253.802 20.0767 254.839 19.792 255.937 19.792Z" fill="black"/>
</svg>
