<svg width="260" height="62" viewBox="0 0 260 62" fill="none" xmlns="http://www.w3.org/2000/svg">
<path d="M6.272 43.376C5.39733 43.376 4.56533 43.248 3.776 42.992C2.98667 42.736 2.336 42.352 1.824 41.84C1.33333 41.328 1.088 40.688 1.088 39.92C1.088 39.1307 1.42933 38.416 2.112 37.776C2.816 37.136 3.808 36.816 5.088 36.816C6.432 36.816 7.70133 37.1253 8.896 37.744C10.112 38.3413 11.392 38.992 12.736 39.696C13.8667 38.608 14.8693 37.3493 15.744 35.92C16.64 34.4693 17.4933 32.944 18.304 31.344C19.136 29.744 19.9893 28.1547 20.864 26.576C21.7387 24.976 22.72 23.4933 23.808 22.128C24 21.8933 24.192 21.6587 24.384 21.424C24.576 21.168 24.7787 20.9227 24.992 20.688C23.84 20.0053 22.6027 19.4827 21.28 19.12C19.9573 18.736 18.592 18.544 17.184 18.544C15.4347 18.544 13.8133 18.768 12.32 19.216C10.8267 19.664 9.52533 20.272 8.416 21.04C7.328 21.7867 6.47467 22.64 5.856 23.6C5.23733 24.5387 4.928 25.5093 4.928 26.512C4.928 27.408 5.10933 28.1547 5.472 28.752C5.856 29.328 6.336 29.7547 6.912 30.032C7.488 30.3093 8.05333 30.448 8.608 30.448C9.35467 30.448 9.99467 30.3093 10.528 30.032C11.0613 29.7333 11.4987 29.3707 11.84 28.944C12.1813 28.5173 12.4373 28.1013 12.608 27.696C12.7787 27.2907 12.8747 26.96 12.896 26.704C12.896 26.5547 12.992 26.48 13.184 26.48C13.4827 26.48 13.6 26.6613 13.536 27.024C13.4293 27.8773 13.1093 28.624 12.576 29.264C12.0427 29.8827 11.4027 30.3733 10.656 30.736C9.90933 31.0773 9.14133 31.248 8.352 31.248C7.41333 31.248 6.56 31.0773 5.792 30.736C5.024 30.3733 4.40533 29.84 3.936 29.136C3.488 28.4107 3.264 27.5253 3.264 26.48C3.264 25.0933 3.63733 23.856 4.384 22.768C5.13067 21.6587 6.15467 20.72 7.456 19.952C8.75733 19.184 10.2507 18.5973 11.936 18.192C13.6213 17.7867 15.4027 17.584 17.28 17.584C18.7307 17.584 20.192 17.7653 21.664 18.128C23.136 18.4693 24.5333 18.992 25.856 19.696C26.4107 19.0773 26.976 18.5333 27.552 18.064C28.1493 17.5733 28.7573 17.2 29.376 16.944C29.6533 16.8373 29.8773 16.784 30.048 16.784C30.176 16.784 30.24 16.816 30.24 16.88C30.24 16.9867 29.9947 17.2533 29.504 17.68C29.2267 17.936 28.896 18.3307 28.512 18.864C28.128 19.376 27.7333 19.9413 27.328 20.56C28.608 21.392 29.7387 22.4053 30.72 23.6C31.7227 24.7733 32.512 26.1173 33.088 27.632C33.664 29.1253 33.952 30.7893 33.952 32.624C33.952 34.416 33.6427 35.984 33.024 37.328C32.4053 38.6507 31.5627 39.7493 30.496 40.624C29.4293 41.4987 28.2027 42.1493 26.816 42.576C25.4293 43.024 23.968 43.248 22.432 43.248C20.6187 43.248 18.9333 43.0027 17.376 42.512C15.84 42.0213 14.4107 41.4667 13.088 40.848C12.0427 41.68 10.9547 42.3093 9.824 42.736C8.71467 43.1627 7.53067 43.376 6.272 43.376ZM25.152 23.984C24.704 24.688 24.16 25.584 23.52 26.672C22.88 27.7387 22.1653 28.9013 21.376 30.16C20.5867 31.4187 19.7653 32.6773 18.912 33.936C18.0587 35.1947 17.1947 36.3787 16.32 37.488C15.4667 38.576 14.6347 39.4933 13.824 40.24C14.9547 40.7947 16.2027 41.2747 17.568 41.68C18.9333 42.0853 20.48 42.288 22.208 42.288C24.1707 42.288 25.8773 41.8827 27.328 41.072C28.7787 40.24 29.9093 39.12 30.72 37.712C31.5307 36.2827 31.936 34.672 31.936 32.88C31.936 30.5547 31.4453 28.4427 30.464 26.544C29.4827 24.624 28.1707 23.024 26.528 21.744C26.2507 22.192 25.9947 22.6187 25.76 23.024C25.5253 23.408 25.3227 23.728 25.152 23.984ZM6.272 42.384C7.36 42.448 8.416 42.256 9.44 41.808C10.4853 41.3387 11.3493 40.8373 12.032 40.304C10.752 39.6853 9.568 39.12 8.48 38.608C7.41333 38.096 6.42133 37.84 5.504 37.84C4.75733 37.84 4.18133 38.064 3.776 38.512C3.37067 38.9387 3.168 39.4187 3.168 39.952C3.168 40.6347 3.43467 41.2 3.968 41.648C4.52267 42.096 5.29067 42.3413 6.272 42.384ZM38.1295 42.128C37.3402 42.128 36.6255 41.872 35.9855 41.36C35.3668 40.848 35.0575 40.0693 35.0575 39.024C35.0575 38.1493 35.2495 37.2213 35.6335 36.24C36.0388 35.2587 36.5615 34.3413 37.2015 33.488C37.8628 32.6133 38.5882 31.9093 39.3775 31.376C40.1882 30.8213 40.9988 30.544 41.8095 30.544C42.2148 30.544 42.6095 30.6613 42.9935 30.896C43.3775 31.1307 43.5695 31.536 43.5695 32.112C43.5695 32.6453 43.3668 33.232 42.9615 33.872C42.5562 34.512 41.9802 35.1093 41.2335 35.664C40.9135 35.8987 40.5082 36.1227 40.0175 36.336C39.5268 36.5493 39.0362 36.7307 38.5455 36.88C38.0548 37.008 37.6495 37.072 37.3295 37.072C37.2228 37.328 37.1162 37.6693 37.0095 38.096C36.9242 38.5227 36.8815 38.96 36.8815 39.408C36.8815 39.9413 36.9882 40.4213 37.2015 40.848C37.4148 41.2747 37.8095 41.488 38.3855 41.488C39.0895 41.488 39.7402 41.2853 40.3375 40.88C40.9562 40.4747 41.5002 39.9627 41.9695 39.344C42.4602 38.7253 42.8762 38.096 43.2175 37.456C43.5588 36.816 43.8255 36.272 44.0175 35.824C44.2735 35.824 44.4015 35.92 44.4015 36.112C44.1242 36.7093 43.8042 37.36 43.4415 38.064C43.1002 38.768 42.6842 39.4293 42.1935 40.048C41.7242 40.6453 41.1482 41.1467 40.4655 41.552C39.8042 41.936 39.0255 42.128 38.1295 42.128ZM37.5535 36.496C37.8522 36.496 38.3535 36.3893 39.0575 36.176C39.7615 35.9413 40.4015 35.5787 40.9775 35.088C41.5322 34.5973 41.9588 34.064 42.2575 33.488C42.5562 32.8907 42.7055 32.3893 42.7055 31.984C42.7055 31.5147 42.5348 31.28 42.1935 31.28C41.9375 31.28 41.5855 31.4507 41.1375 31.792C40.6895 32.1333 40.1348 32.7093 39.4735 33.52C39.0682 34.032 38.6842 34.5867 38.3215 35.184C37.9588 35.7813 37.7028 36.2187 37.5535 36.496ZM45.069 42.224C44.4077 42.224 43.949 42.0533 43.693 41.712C43.437 41.3707 43.309 40.9333 43.309 40.4C43.309 39.8453 43.405 39.216 43.597 38.512C43.789 37.808 44.045 37.0187 44.365 36.144C44.1303 36.144 44.013 36.0373 44.013 35.824C44.1837 35.3973 44.365 34.9173 44.557 34.384C44.7703 33.8293 44.877 33.2107 44.877 32.528C44.877 32.1867 44.8343 31.8987 44.749 31.664C44.6637 31.4293 44.5357 31.2907 44.365 31.248C44.365 31.248 44.4717 31.2267 44.685 31.184C44.9197 31.1413 45.165 31.0987 45.421 31.056C45.677 31.0133 45.8477 30.992 45.933 30.992C46.061 30.9707 46.1783 30.96 46.285 30.96C46.3917 30.9387 46.4877 30.928 46.573 30.928C46.7863 30.928 46.925 31.0133 46.989 31.184C47.0743 31.3547 47.1063 31.728 47.085 32.304C47.0637 32.8373 46.957 33.488 46.765 34.256C46.573 35.0027 46.3703 35.6533 46.157 36.208C45.8797 36.9333 45.6237 37.6693 45.389 38.416C45.1543 39.1627 45.037 39.7813 45.037 40.272C45.037 40.6987 45.1543 40.976 45.389 41.104C45.5597 41.168 45.709 41.2 45.837 41.2C46.3277 41.2 46.8077 40.9653 47.277 40.496C47.7463 40.0267 48.1837 39.4613 48.589 38.8C49.0157 38.1173 49.3677 37.4667 49.645 36.848C49.517 36.3573 49.453 35.7707 49.453 35.088C49.453 34.3627 49.5383 33.6267 49.709 32.88C49.8797 32.1333 50.1463 31.5147 50.509 31.024C50.8717 30.512 51.341 30.256 51.917 30.256C52.3223 30.256 52.525 30.4373 52.525 30.8C52.525 30.8853 52.4183 31.248 52.205 31.888C52.013 32.528 51.757 33.2853 51.437 34.16C51.117 35.0347 50.7757 35.8773 50.413 36.688C50.3277 36.8587 50.253 37.0293 50.189 37.2C50.2743 37.5627 50.4343 37.8613 50.669 38.096C50.9037 38.3093 51.1917 38.416 51.533 38.416C51.9597 38.416 52.3543 38.224 52.717 37.84C53.101 37.4347 53.4957 36.7627 53.901 35.824C54.157 35.824 54.285 35.92 54.285 36.112C53.9437 36.9653 53.5277 37.648 53.037 38.16C52.5677 38.672 52.0343 38.928 51.437 38.928C50.7117 38.928 50.189 38.5547 49.869 37.808C49.5063 38.5547 49.0797 39.2693 48.589 39.952C48.0983 40.6133 47.5543 41.1573 46.957 41.584C46.381 42.0107 45.7517 42.224 45.069 42.224ZM63.872 45.424C61.9307 45.424 60.2027 45.0293 58.688 44.24C57.1947 43.472 56.0213 42.3307 55.168 40.816C54.336 39.28 53.92 37.4027 53.92 35.184C53.92 33.8613 54.0907 32.5387 54.432 31.216C54.7733 29.8933 55.232 28.624 55.808 27.408C56.4053 26.192 57.0667 25.072 57.792 24.048C57.472 22.768 57.312 21.3813 57.312 19.888C57.312 18.7573 57.44 17.68 57.696 16.656C57.7813 16.3573 57.9307 16.208 58.144 16.208C58.3147 16.208 58.3893 16.3147 58.368 16.528C58.304 16.9547 58.2507 17.4133 58.208 17.904C58.1653 18.3733 58.144 18.9387 58.144 19.6C58.144 20.8373 58.2613 22.0107 58.496 23.12C58.7093 22.8427 58.9227 22.5867 59.136 22.352C60.0107 21.392 61.0453 20.496 62.24 19.664C63.4347 18.8107 64.7573 18.128 66.208 17.616C67.68 17.104 69.2373 16.848 70.88 16.848C72.416 16.848 73.824 17.136 75.104 17.712C76.384 18.2667 77.408 19.0773 78.176 20.144C78.9653 21.1893 79.36 22.4587 79.36 23.952C79.36 24.8907 79.104 25.8507 78.592 26.832C78.1013 27.8133 77.3867 28.72 76.448 29.552C75.5307 30.3627 74.4107 31.024 73.088 31.536C71.7867 32.048 70.3253 32.304 68.704 32.304C66.5707 32.304 64.6187 31.8347 62.848 30.896C61.0773 29.9573 59.7013 28.528 58.72 26.608C57.8667 28.1227 57.2373 29.6587 56.832 31.216C56.4267 32.7733 56.224 34.256 56.224 35.664C56.224 37.712 56.5653 39.376 57.248 40.656C57.9307 41.936 58.8693 42.8747 60.064 43.472C61.28 44.0907 62.6667 44.4 64.224 44.4C66.9973 44.4 69.4293 43.696 71.52 42.288C73.632 40.9013 75.3707 38.7467 76.736 35.824C76.992 35.824 77.12 35.92 77.12 36.112C75.7973 39.2693 73.984 41.6053 71.68 43.12C69.3973 44.656 66.7947 45.424 63.872 45.424ZM60.096 24.464C59.8187 24.848 59.552 25.2427 59.296 25.648C60.0427 27.3973 61.184 28.8053 62.72 29.872C64.256 30.9387 66.1867 31.472 68.512 31.472C69.984 31.472 71.296 31.248 72.448 30.8C73.6213 30.352 74.6027 29.7547 75.392 29.008C76.2027 28.2613 76.8213 27.44 77.248 26.544C77.6747 25.6267 77.888 24.7093 77.888 23.792C77.888 22.6613 77.5787 21.6693 76.96 20.816C76.3627 19.9627 75.5413 19.3013 74.496 18.832C73.4507 18.3413 72.2667 18.096 70.944 18.096C69.6213 18.096 68.288 18.3733 66.944 18.928C65.6213 19.4827 64.3627 20.24 63.168 21.2C61.9947 22.16 60.9707 23.248 60.096 24.464ZM80.5268 42C79.6521 42 79.0014 41.6907 78.5748 41.072C78.1694 40.432 77.9668 39.664 77.9668 38.768C77.9668 37.936 78.1268 37.072 78.4468 36.176C78.7881 35.1947 79.2574 34.2987 79.8548 33.488C80.4734 32.6773 81.1454 32.0267 81.8708 31.536C82.6174 31.024 83.3534 30.768 84.0788 30.768C84.9534 30.768 85.5934 31.0667 85.9988 31.664C86.4254 32.2613 86.6388 33.0187 86.6388 33.936C86.6388 34.576 86.5321 35.248 86.3188 35.952C86.1054 36.656 85.8174 37.3493 85.4548 38.032C85.7321 38.3093 86.1268 38.448 86.6388 38.448C87.2361 38.448 87.7481 38.256 88.1748 37.872C88.6014 37.488 89.0174 36.8053 89.4228 35.824C89.6788 35.824 89.8068 35.92 89.8068 36.112C89.4014 37.0933 88.9321 37.8187 88.3988 38.288C87.8868 38.736 87.2254 38.9493 86.4148 38.928C85.9241 38.928 85.5188 38.7893 85.1988 38.512C84.6014 39.4933 83.8868 40.3253 83.0548 41.008C82.2441 41.6693 81.4014 42 80.5268 42ZM80.9748 41.296C81.4654 41.296 81.9561 41.0933 82.4468 40.688C82.9374 40.2613 83.3854 39.7813 83.7908 39.248C84.1961 38.7147 84.4841 38.256 84.6548 37.872C84.3134 37.2533 84.1108 36.7947 84.0468 36.496C84.0041 36.176 83.9828 35.9413 83.9828 35.792C83.9828 35.3867 84.0894 35.0773 84.3028 34.864C84.5161 34.6507 84.7294 34.544 84.9427 34.544C85.2414 34.544 85.4974 34.672 85.7108 34.928C85.7534 34.6933 85.7854 34.48 85.8068 34.288C85.8281 34.0747 85.8388 33.872 85.8388 33.68C85.8388 33.1253 85.7321 32.6773 85.5188 32.336C85.3268 31.9733 85.0174 31.792 84.5908 31.792C84.1428 31.792 83.6734 31.984 83.1828 32.368C82.6921 32.752 82.2228 33.264 81.7748 33.904C81.3481 34.544 80.9748 35.2587 80.6548 36.048C80.3774 36.7093 80.1641 37.3387 80.0148 37.936C79.8654 38.512 79.7908 39.0453 79.7908 39.536C79.7908 40.0693 79.8868 40.496 80.0788 40.816C80.2708 41.136 80.5694 41.296 80.9748 41.296ZM86.3472 42.256C87.1152 40.6987 87.8513 39.1627 88.5553 37.648C89.2593 36.112 89.9846 34.6507 90.7313 33.264C91.1579 32.496 91.5206 31.9627 91.8193 31.664C92.1179 31.344 92.5126 31.184 93.0033 31.184C93.1739 31.184 93.3553 31.216 93.5473 31.28C93.7393 31.3227 93.9313 31.344 94.1233 31.344C94.2513 31.344 94.3473 31.3333 94.4113 31.312C94.1126 31.4827 93.7179 31.9093 93.2273 32.592C92.7579 33.2533 92.2779 34.0213 91.7873 34.896C91.2966 35.7707 90.8593 36.592 90.4753 37.36C90.8806 36.8693 91.3073 36.3787 91.7552 35.888C92.2033 35.3973 92.6939 34.928 93.2273 34.48C93.7393 34.032 94.3473 33.5733 95.0513 33.104C95.7766 32.6133 96.4806 32.208 97.1633 31.888C97.8459 31.568 98.3899 31.408 98.7953 31.408C98.9446 31.408 99.0513 31.4187 99.1153 31.44C99.1153 31.44 98.9979 31.6533 98.7633 32.08C98.5286 32.4853 98.2299 33.0293 97.8673 33.712C97.5259 34.3733 97.1739 35.088 96.8113 35.856C96.4486 36.6027 96.1179 37.328 95.8193 38.032C95.5419 38.7147 95.3606 39.2907 95.2753 39.76C95.2113 40.0373 95.1793 40.2933 95.1793 40.528C95.1793 40.8693 95.2433 41.0933 95.3713 41.2C95.4993 41.3067 95.6379 41.36 95.7873 41.36C96.1926 41.36 96.6086 41.1787 97.0353 40.816C97.4619 40.4533 97.8673 39.9947 98.2513 39.44C98.6566 38.864 99.0299 38.256 99.3713 37.616C99.7126 36.976 100.001 36.3787 100.235 35.824C100.491 35.824 100.619 35.92 100.619 36.112C100.385 36.688 100.086 37.328 99.7233 38.032C99.3819 38.7147 98.9873 39.3653 98.5393 39.984C98.1126 40.6027 97.6326 41.1147 97.0993 41.52C96.5659 41.9253 95.9899 42.128 95.3713 42.128C94.9446 42.128 94.4966 41.9787 94.0273 41.68C93.5793 41.3813 93.3553 40.8267 93.3553 40.016C93.3553 39.7813 93.3766 39.536 93.4193 39.28C93.4619 39.0027 93.5366 38.704 93.6433 38.384C93.8139 37.9573 94.0166 37.4987 94.2513 37.008C94.4859 36.5173 94.8699 35.8453 95.4033 34.992C95.5526 34.7573 95.6379 34.576 95.6593 34.448C95.7019 34.32 95.7233 34.2133 95.7233 34.128C95.7233 33.872 95.6059 33.744 95.3713 33.744C95.1793 33.744 94.8913 33.8507 94.5073 34.064C94.1446 34.2773 93.6859 34.6507 93.1313 35.184C92.5979 35.696 91.9579 36.4213 91.2113 37.36C90.4859 38.2987 89.6433 39.6853 88.6833 41.52C88.5339 41.7973 88.3633 41.9467 88.1713 41.968C88.0006 41.9893 87.7553 42.0107 87.4352 42.032C87.2219 42.0533 87.0192 42.064 86.8272 42.064C86.6352 42.0853 86.4752 42.1493 86.3472 42.256ZM97.1597 42.256C97.9277 40.6987 98.6638 39.1627 99.3678 37.648C100.072 36.112 100.797 34.6507 101.544 33.264C101.97 32.496 102.333 31.9627 102.632 31.664C102.93 31.344 103.325 31.184 103.816 31.184C103.986 31.184 104.168 31.216 104.36 31.28C104.552 31.3227 104.744 31.344 104.936 31.344C105.064 31.344 105.16 31.3333 105.224 31.312C104.925 31.4827 104.53 31.9093 104.04 32.592C103.57 33.2533 103.09 34.0213 102.6 34.896C102.109 35.7707 101.672 36.592 101.288 37.36C101.693 36.8693 102.12 36.3787 102.568 35.888C103.016 35.3973 103.506 34.928 104.04 34.48C104.552 34.032 105.16 33.5733 105.864 33.104C106.589 32.6133 107.293 32.208 107.976 31.888C108.658 31.568 109.202 31.408 109.608 31.408C109.757 31.408 109.864 31.4187 109.928 31.44C109.928 31.44 109.81 31.6533 109.576 32.08C109.341 32.4853 109.042 33.0293 108.68 33.712C108.338 34.3733 107.986 35.088 107.624 35.856C107.261 36.6027 106.93 37.328 106.632 38.032C106.354 38.7147 106.173 39.2907 106.088 39.76C106.024 40.0373 105.992 40.2933 105.992 40.528C105.992 40.8693 106.056 41.0933 106.184 41.2C106.312 41.3067 106.45 41.36 106.6 41.36C107.005 41.36 107.421 41.1787 107.848 40.816C108.274 40.4533 108.68 39.9947 109.064 39.44C109.469 38.864 109.842 38.256 110.184 37.616C110.525 36.976 110.813 36.3787 111.048 35.824C111.304 35.824 111.432 35.92 111.432 36.112C111.197 36.688 110.898 37.328 110.536 38.032C110.194 38.7147 109.8 39.3653 109.352 39.984C108.925 40.6027 108.445 41.1147 107.912 41.52C107.378 41.9253 106.802 42.128 106.184 42.128C105.757 42.128 105.309 41.9787 104.84 41.68C104.392 41.3813 104.168 40.8267 104.168 40.016C104.168 39.7813 104.189 39.536 104.232 39.28C104.274 39.0027 104.349 38.704 104.456 38.384C104.626 37.9573 104.829 37.4987 105.064 37.008C105.298 36.5173 105.682 35.8453 106.216 34.992C106.365 34.7573 106.45 34.576 106.472 34.448C106.514 34.32 106.536 34.2133 106.536 34.128C106.536 33.872 106.418 33.744 106.184 33.744C105.992 33.744 105.704 33.8507 105.32 34.064C104.957 34.2773 104.498 34.6507 103.944 35.184C103.41 35.696 102.77 36.4213 102.024 37.36C101.298 38.2987 100.456 39.6853 99.4958 41.52C99.3464 41.7973 99.1758 41.9467 98.9838 41.968C98.8131 41.9893 98.5678 42.0107 98.2477 42.032C98.0344 42.0533 97.8317 42.064 97.6397 42.064C97.4477 42.0853 97.2877 42.1493 97.1597 42.256ZM113.348 42.128C112.559 42.128 111.844 41.872 111.204 41.36C110.586 40.848 110.276 40.0693 110.276 39.024C110.276 38.1493 110.468 37.2213 110.852 36.24C111.258 35.2587 111.78 34.3413 112.42 33.488C113.082 32.6133 113.807 31.9093 114.596 31.376C115.407 30.8213 116.218 30.544 117.028 30.544C117.434 30.544 117.828 30.6613 118.212 30.896C118.596 31.1307 118.788 31.536 118.788 32.112C118.788 32.6453 118.586 33.232 118.18 33.872C117.775 34.512 117.199 35.1093 116.452 35.664C116.132 35.8987 115.727 36.1227 115.236 36.336C114.746 36.5493 114.255 36.7307 113.764 36.88C113.274 37.008 112.868 37.072 112.548 37.072C112.442 37.328 112.335 37.6693 112.228 38.096C112.143 38.5227 112.1 38.96 112.1 39.408C112.1 39.9413 112.207 40.4213 112.42 40.848C112.634 41.2747 113.028 41.488 113.604 41.488C114.308 41.488 114.959 41.2853 115.556 40.88C116.175 40.4747 116.719 39.9627 117.188 39.344C117.679 38.7253 118.095 38.096 118.436 37.456C118.778 36.816 119.044 36.272 119.236 35.824C119.492 35.824 119.62 35.92 119.62 36.112C119.343 36.7093 119.023 37.36 118.66 38.064C118.319 38.768 117.903 39.4293 117.412 40.048C116.943 40.6453 116.367 41.1467 115.684 41.552C115.023 41.936 114.244 42.128 113.348 42.128ZM112.772 36.496C113.071 36.496 113.572 36.3893 114.276 36.176C114.98 35.9413 115.62 35.5787 116.196 35.088C116.751 34.5973 117.178 34.064 117.476 33.488C117.775 32.8907 117.924 32.3893 117.924 31.984C117.924 31.5147 117.754 31.28 117.412 31.28C117.156 31.28 116.804 31.4507 116.356 31.792C115.908 32.1333 115.354 32.7093 114.692 33.52C114.287 34.032 113.903 34.5867 113.54 35.184C113.178 35.7813 112.922 36.2187 112.772 36.496ZM121.984 42.128C120.81 42.128 119.936 41.8187 119.36 41.2C118.805 40.5813 118.528 39.7493 118.528 38.704C118.528 38.2133 118.624 37.648 118.816 37.008C119.008 36.368 119.264 35.7173 119.584 35.056C119.904 34.3947 120.256 33.808 120.64 33.296C121.258 32.464 121.941 31.824 122.688 31.376C123.434 30.9067 124.192 30.672 124.96 30.672C125.77 30.672 126.346 30.8533 126.688 31.216C127.05 31.5573 127.232 31.9627 127.232 32.432C127.232 32.88 127.125 33.2853 126.912 33.648C126.698 33.9893 126.453 34.2667 126.176 34.48C125.92 34.6933 125.696 34.8 125.504 34.8C125.333 34.8 125.184 34.736 125.056 34.608C125.226 34.3947 125.408 34.1387 125.6 33.84C125.792 33.5413 125.93 33.2533 126.016 32.976C126.101 32.72 126.144 32.464 126.144 32.208C126.144 31.6533 125.888 31.376 125.376 31.376C124.757 31.376 124.149 31.632 123.552 32.144C122.976 32.656 122.442 33.3173 121.952 34.128C121.482 34.9173 121.098 35.76 120.8 36.656C120.522 37.5307 120.384 38.3413 120.384 39.088C120.384 39.7707 120.522 40.336 120.8 40.784C121.098 41.232 121.578 41.456 122.24 41.456C123.114 41.456 123.882 41.1787 124.544 40.624C125.205 40.048 125.792 39.3333 126.304 38.48C126.816 37.6053 127.264 36.72 127.648 35.824C127.733 35.824 127.818 35.8453 127.904 35.888C127.989 35.9093 128.032 35.984 128.032 36.112C127.605 37.1787 127.104 38.1707 126.528 39.088C125.952 40.0053 125.29 40.7413 124.544 41.296C123.818 41.8507 122.965 42.128 121.984 42.128ZM134.262 25.104C133.985 25.5093 133.675 26.0213 133.334 26.64C132.993 27.2587 132.673 27.856 132.374 28.432C132.097 29.008 131.883 29.4453 131.734 29.744H134.678C134.678 29.8293 134.635 29.968 134.55 30.16C134.486 30.352 134.347 30.4907 134.134 30.576H131.35C131.094 31.152 130.795 31.8453 130.454 32.656C130.134 33.4667 129.814 34.3093 129.494 35.184C129.195 36.0587 128.939 36.88 128.726 37.648C128.534 38.3947 128.438 39.0027 128.438 39.472C128.438 40.112 128.523 40.592 128.694 40.912C128.865 41.2107 129.174 41.36 129.622 41.36C130.198 41.36 130.753 41.0827 131.286 40.528C131.819 39.952 132.321 39.2373 132.79 38.384C133.281 37.5307 133.707 36.6773 134.07 35.824C134.326 35.824 134.454 35.92 134.454 36.112C134.219 36.688 133.931 37.3173 133.59 38C133.249 38.6827 132.854 39.344 132.406 39.984C131.979 40.6027 131.489 41.1147 130.934 41.52C130.401 41.904 129.803 42.096 129.142 42.096C128.246 42.096 127.638 41.8507 127.318 41.36C126.998 40.848 126.838 40.1973 126.838 39.408C126.838 38.832 126.945 38.1387 127.158 37.328C127.371 36.496 127.627 35.6427 127.926 34.768C128.246 33.8933 128.555 33.0827 128.854 32.336C129.153 31.568 129.387 30.9813 129.558 30.576H127.51C127.51 30.4053 127.585 30.224 127.734 30.032C127.883 29.84 128.043 29.744 128.214 29.744H129.91C130.081 29.4027 130.273 28.976 130.486 28.464C130.721 27.952 131.03 27.3867 131.414 26.768C131.734 26.256 132.139 25.8507 132.63 25.552C133.142 25.2533 133.686 25.104 134.262 25.104Z" fill="black"/>
<path d="M6.272 43.376C5.39733 43.376 4.56533 43.248 3.776 42.992C2.98667 42.736 2.336 42.352 1.824 41.84C1.33333 41.328 1.088 40.688 1.088 39.92C1.088 39.1307 1.42933 38.416 2.112 37.776C2.816 37.136 3.808 36.816 5.088 36.816C6.432 36.816 7.70133 37.1253 8.896 37.744C10.112 38.3413 11.392 38.992 12.736 39.696C13.8667 38.608 14.8693 37.3493 15.744 35.92C16.64 34.4693 17.4933 32.944 18.304 31.344C19.136 29.744 19.9893 28.1547 20.864 26.576C21.7387 24.976 22.72 23.4933 23.808 22.128C24 21.8933 24.192 21.6587 24.384 21.424C24.576 21.168 24.7787 20.9227 24.992 20.688C23.84 20.0053 22.6027 19.4827 21.28 19.12C19.9573 18.736 18.592 18.544 17.184 18.544C15.4347 18.544 13.8133 18.768 12.32 19.216C10.8267 19.664 9.52533 20.272 8.416 21.04C7.328 21.7867 6.47467 22.64 5.856 23.6C5.23733 24.5387 4.928 25.5093 4.928 26.512C4.928 27.408 5.10933 28.1547 5.472 28.752C5.856 29.328 6.336 29.7547 6.912 30.032C7.488 30.3093 8.05333 30.448 8.608 30.448C9.35467 30.448 9.99467 30.3093 10.528 30.032C11.0613 29.7333 11.4987 29.3707 11.84 28.944C12.1813 28.5173 12.4373 28.1013 12.608 27.696C12.7787 27.2907 12.8747 26.96 12.896 26.704C12.896 26.5547 12.992 26.48 13.184 26.48C13.4827 26.48 13.6 26.6613 13.536 27.024C13.4293 27.8773 13.1093 28.624 12.576 29.264C12.0427 29.8827 11.4027 30.3733 10.656 30.736C9.90933 31.0773 9.14133 31.248 8.352 31.248C7.41333 31.248 6.56 31.0773 5.792 30.736C5.024 30.3733 4.40533 29.84 3.936 29.136C3.488 28.4107 3.264 27.5253 3.264 26.48C3.264 25.0933 3.63733 23.856 4.384 22.768C5.13067 21.6587 6.15467 20.72 7.456 19.952C8.75733 19.184 10.2507 18.5973 11.936 18.192C13.6213 17.7867 15.4027 17.584 17.28 17.584C18.7307 17.584 20.192 17.7653 21.664 18.128C23.136 18.4693 24.5333 18.992 25.856 19.696C26.4107 19.0773 26.976 18.5333 27.552 18.064C28.1493 17.5733 28.7573 17.2 29.376 16.944C29.6533 16.8373 29.8773 16.784 30.048 16.784C30.176 16.784 30.24 16.816 30.24 16.88C30.24 16.9867 29.9947 17.2533 29.504 17.68C29.2267 17.936 28.896 18.3307 28.512 18.864C28.128 19.376 27.7333 19.9413 27.328 20.56C28.608 21.392 29.7387 22.4053 30.72 23.6C31.7227 24.7733 32.512 26.1173 33.088 27.632C33.664 29.1253 33.952 30.7893 33.952 32.624C33.952 34.416 33.6427 35.984 33.024 37.328C32.4053 38.6507 31.5627 39.7493 30.496 40.624C29.4293 41.4987 28.2027 42.1493 26.816 42.576C25.4293 43.024 23.968 43.248 22.432 43.248C20.6187 43.248 18.9333 43.0027 17.376 42.512C15.84 42.0213 14.4107 41.4667 13.088 40.848C12.0427 41.68 10.9547 42.3093 9.824 42.736C8.71467 43.1627 7.53067 43.376 6.272 43.376ZM25.152 23.984C24.704 24.688 24.16 25.584 23.52 26.672C22.88 27.7387 22.1653 28.9013 21.376 30.16C20.5867 31.4187 19.7653 32.6773 18.912 33.936C18.0587 35.1947 17.1947 36.3787 16.32 37.488C15.4667 38.576 14.6347 39.4933 13.824 40.24C14.9547 40.7947 16.2027 41.2747 17.568 41.68C18.9333 42.0853 20.48 42.288 22.208 42.288C24.1707 42.288 25.8773 41.8827 27.328 41.072C28.7787 40.24 29.9093 39.12 30.72 37.712C31.5307 36.2827 31.936 34.672 31.936 32.88C31.936 30.5547 31.4453 28.4427 30.464 26.544C29.4827 24.624 28.1707 23.024 26.528 21.744C26.2507 22.192 25.9947 22.6187 25.76 23.024C25.5253 23.408 25.3227 23.728 25.152 23.984ZM6.272 42.384C7.36 42.448 8.416 42.256 9.44 41.808C10.4853 41.3387 11.3493 40.8373 12.032 40.304C10.752 39.6853 9.568 39.12 8.48 38.608C7.41333 38.096 6.42133 37.84 5.504 37.84C4.75733 37.84 4.18133 38.064 3.776 38.512C3.37067 38.9387 3.168 39.4187 3.168 39.952C3.168 40.6347 3.43467 41.2 3.968 41.648C4.52267 42.096 5.29067 42.3413 6.272 42.384ZM38.1295 42.128C37.3402 42.128 36.6255 41.872 35.9855 41.36C35.3668 40.848 35.0575 40.0693 35.0575 39.024C35.0575 38.1493 35.2495 37.2213 35.6335 36.24C36.0388 35.2587 36.5615 34.3413 37.2015 33.488C37.8628 32.6133 38.5882 31.9093 39.3775 31.376C40.1882 30.8213 40.9988 30.544 41.8095 30.544C42.2148 30.544 42.6095 30.6613 42.9935 30.896C43.3775 31.1307 43.5695 31.536 43.5695 32.112C43.5695 32.6453 43.3668 33.232 42.9615 33.872C42.5562 34.512 41.9802 35.1093 41.2335 35.664C40.9135 35.8987 40.5082 36.1227 40.0175 36.336C39.5268 36.5493 39.0362 36.7307 38.5455 36.88C38.0548 37.008 37.6495 37.072 37.3295 37.072C37.2228 37.328 37.1162 37.6693 37.0095 38.096C36.9242 38.5227 36.8815 38.96 36.8815 39.408C36.8815 39.9413 36.9882 40.4213 37.2015 40.848C37.4148 41.2747 37.8095 41.488 38.3855 41.488C39.0895 41.488 39.7402 41.2853 40.3375 40.88C40.9562 40.4747 41.5002 39.9627 41.9695 39.344C42.4602 38.7253 42.8762 38.096 43.2175 37.456C43.5588 36.816 43.8255 36.272 44.0175 35.824C44.2735 35.824 44.4015 35.92 44.4015 36.112C44.1242 36.7093 43.8042 37.36 43.4415 38.064C43.1002 38.768 42.6842 39.4293 42.1935 40.048C41.7242 40.6453 41.1482 41.1467 40.4655 41.552C39.8042 41.936 39.0255 42.128 38.1295 42.128ZM37.5535 36.496C37.8522 36.496 38.3535 36.3893 39.0575 36.176C39.7615 35.9413 40.4015 35.5787 40.9775 35.088C41.5322 34.5973 41.9588 34.064 42.2575 33.488C42.5562 32.8907 42.7055 32.3893 42.7055 31.984C42.7055 31.5147 42.5348 31.28 42.1935 31.28C41.9375 31.28 41.5855 31.4507 41.1375 31.792C40.6895 32.1333 40.1348 32.7093 39.4735 33.52C39.0682 34.032 38.6842 34.5867 38.3215 35.184C37.9588 35.7813 37.7028 36.2187 37.5535 36.496ZM45.069 42.224C44.4077 42.224 43.949 42.0533 43.693 41.712C43.437 41.3707 43.309 40.9333 43.309 40.4C43.309 39.8453 43.405 39.216 43.597 38.512C43.789 37.808 44.045 37.0187 44.365 36.144C44.1303 36.144 44.013 36.0373 44.013 35.824C44.1837 35.3973 44.365 34.9173 44.557 34.384C44.7703 33.8293 44.877 33.2107 44.877 32.528C44.877 32.1867 44.8343 31.8987 44.749 31.664C44.6637 31.4293 44.5357 31.2907 44.365 31.248C44.365 31.248 44.4717 31.2267 44.685 31.184C44.9197 31.1413 45.165 31.0987 45.421 31.056C45.677 31.0133 45.8477 30.992 45.933 30.992C46.061 30.9707 46.1783 30.96 46.285 30.96C46.3917 30.9387 46.4877 30.928 46.573 30.928C46.7863 30.928 46.925 31.0133 46.989 31.184C47.0743 31.3547 47.1063 31.728 47.085 32.304C47.0637 32.8373 46.957 33.488 46.765 34.256C46.573 35.0027 46.3703 35.6533 46.157 36.208C45.8797 36.9333 45.6237 37.6693 45.389 38.416C45.1543 39.1627 45.037 39.7813 45.037 40.272C45.037 40.6987 45.1543 40.976 45.389 41.104C45.5597 41.168 45.709 41.2 45.837 41.2C46.3277 41.2 46.8077 40.9653 47.277 40.496C47.7463 40.0267 48.1837 39.4613 48.589 38.8C49.0157 38.1173 49.3677 37.4667 49.645 36.848C49.517 36.3573 49.453 35.7707 49.453 35.088C49.453 34.3627 49.5383 33.6267 49.709 32.88C49.8797 32.1333 50.1463 31.5147 50.509 31.024C50.8717 30.512 51.341 30.256 51.917 30.256C52.3223 30.256 52.525 30.4373 52.525 30.8C52.525 30.8853 52.4183 31.248 52.205 31.888C52.013 32.528 51.757 33.2853 51.437 34.16C51.117 35.0347 50.7757 35.8773 50.413 36.688C50.3277 36.8587 50.253 37.0293 50.189 37.2C50.2743 37.5627 50.4343 37.8613 50.669 38.096C50.9037 38.3093 51.1917 38.416 51.533 38.416C51.9597 38.416 52.3543 38.224 52.717 37.84C53.101 37.4347 53.4957 36.7627 53.901 35.824C54.157 35.824 54.285 35.92 54.285 36.112C53.9437 36.9653 53.5277 37.648 53.037 38.16C52.5677 38.672 52.0343 38.928 51.437 38.928C50.7117 38.928 50.189 38.5547 49.869 37.808C49.5063 38.5547 49.0797 39.2693 48.589 39.952C48.0983 40.6133 47.5543 41.1573 46.957 41.584C46.381 42.0107 45.7517 42.224 45.069 42.224ZM63.872 45.424C61.9307 45.424 60.2027 45.0293 58.688 44.24C57.1947 43.472 56.0213 42.3307 55.168 40.816C54.336 39.28 53.92 37.4027 53.92 35.184C53.92 33.8613 54.0907 32.5387 54.432 31.216C54.7733 29.8933 55.232 28.624 55.808 27.408C56.4053 26.192 57.0667 25.072 57.792 24.048C57.472 22.768 57.312 21.3813 57.312 19.888C57.312 18.7573 57.44 17.68 57.696 16.656C57.7813 16.3573 57.9307 16.208 58.144 16.208C58.3147 16.208 58.3893 16.3147 58.368 16.528C58.304 16.9547 58.2507 17.4133 58.208 17.904C58.1653 18.3733 58.144 18.9387 58.144 19.6C58.144 20.8373 58.2613 22.0107 58.496 23.12C58.7093 22.8427 58.9227 22.5867 59.136 22.352C60.0107 21.392 61.0453 20.496 62.24 19.664C63.4347 18.8107 64.7573 18.128 66.208 17.616C67.68 17.104 69.2373 16.848 70.88 16.848C72.416 16.848 73.824 17.136 75.104 17.712C76.384 18.2667 77.408 19.0773 78.176 20.144C78.9653 21.1893 79.36 22.4587 79.36 23.952C79.36 24.8907 79.104 25.8507 78.592 26.832C78.1013 27.8133 77.3867 28.72 76.448 29.552C75.5307 30.3627 74.4107 31.024 73.088 31.536C71.7867 32.048 70.3253 32.304 68.704 32.304C66.5707 32.304 64.6187 31.8347 62.848 30.896C61.0773 29.9573 59.7013 28.528 58.72 26.608C57.8667 28.1227 57.2373 29.6587 56.832 31.216C56.4267 32.7733 56.224 34.256 56.224 35.664C56.224 37.712 56.5653 39.376 57.248 40.656C57.9307 41.936 58.8693 42.8747 60.064 43.472C61.28 44.0907 62.6667 44.4 64.224 44.4C66.9973 44.4 69.4293 43.696 71.52 42.288C73.632 40.9013 75.3707 38.7467 76.736 35.824C76.992 35.824 77.12 35.92 77.12 36.112C75.7973 39.2693 73.984 41.6053 71.68 43.12C69.3973 44.656 66.7947 45.424 63.872 45.424ZM60.096 24.464C59.8187 24.848 59.552 25.2427 59.296 25.648C60.0427 27.3973 61.184 28.8053 62.72 29.872C64.256 30.9387 66.1867 31.472 68.512 31.472C69.984 31.472 71.296 31.248 72.448 30.8C73.6213 30.352 74.6027 29.7547 75.392 29.008C76.2027 28.2613 76.8213 27.44 77.248 26.544C77.6747 25.6267 77.888 24.7093 77.888 23.792C77.888 22.6613 77.5787 21.6693 76.96 20.816C76.3627 19.9627 75.5413 19.3013 74.496 18.832C73.4507 18.3413 72.2667 18.096 70.944 18.096C69.6213 18.096 68.288 18.3733 66.944 18.928C65.6213 19.4827 64.3627 20.24 63.168 21.2C61.9947 22.16 60.9707 23.248 60.096 24.464ZM80.5268 42C79.6521 42 79.0014 41.6907 78.5748 41.072C78.1694 40.432 77.9668 39.664 77.9668 38.768C77.9668 37.936 78.1268 37.072 78.4468 36.176C78.7881 35.1947 79.2574 34.2987 79.8548 33.488C80.4734 32.6773 81.1454 32.0267 81.8708 31.536C82.6174 31.024 83.3534 30.768 84.0788 30.768C84.9534 30.768 85.5934 31.0667 85.9988 31.664C86.4254 32.2613 86.6388 33.0187 86.6388 33.936C86.6388 34.576 86.5321 35.248 86.3188 35.952C86.1054 36.656 85.8174 37.3493 85.4548 38.032C85.7321 38.3093 86.1268 38.448 86.6388 38.448C87.2361 38.448 87.7481 38.256 88.1748 37.872C88.6014 37.488 89.0174 36.8053 89.4228 35.824C89.6788 35.824 89.8068 35.92 89.8068 36.112C89.4014 37.0933 88.9321 37.8187 88.3988 38.288C87.8868 38.736 87.2254 38.9493 86.4148 38.928C85.9241 38.928 85.5188 38.7893 85.1988 38.512C84.6014 39.4933 83.8868 40.3253 83.0548 41.008C82.2441 41.6693 81.4014 42 80.5268 42ZM80.9748 41.296C81.4654 41.296 81.9561 41.0933 82.4468 40.688C82.9374 40.2613 83.3854 39.7813 83.7908 39.248C84.1961 38.7147 84.4841 38.256 84.6548 37.872C84.3134 37.2533 84.1108 36.7947 84.0468 36.496C84.0041 36.176 83.9828 35.9413 83.9828 35.792C83.9828 35.3867 84.0894 35.0773 84.3028 34.864C84.5161 34.6507 84.7294 34.544 84.9427 34.544C85.2414 34.544 85.4974 34.672 85.7108 34.928C85.7534 34.6933 85.7854 34.48 85.8068 34.288C85.8281 34.0747 85.8388 33.872 85.8388 33.68C85.8388 33.1253 85.7321 32.6773 85.5188 32.336C85.3268 31.9733 85.0174 31.792 84.5908 31.792C84.1428 31.792 83.6734 31.984 83.1828 32.368C82.6921 32.752 82.2228 33.264 81.7748 33.904C81.3481 34.544 80.9748 35.2587 80.6548 36.048C80.3774 36.7093 80.1641 37.3387 80.0148 37.936C79.8654 38.512 79.7908 39.0453 79.7908 39.536C79.7908 40.0693 79.8868 40.496 80.0788 40.816C80.2708 41.136 80.5694 41.296 80.9748 41.296ZM86.3472 42.256C87.1152 40.6987 87.8513 39.1627 88.5553 37.648C89.2593 36.112 89.9846 34.6507 90.7313 33.264C91.1579 32.496 91.5206 31.9627 91.8193 31.664C92.1179 31.344 92.5126 31.184 93.0033 31.184C93.1739 31.184 93.3553 31.216 93.5473 31.28C93.7393 31.3227 93.9313 31.344 94.1233 31.344C94.2513 31.344 94.3473 31.3333 94.4113 31.312C94.1126 31.4827 93.7179 31.9093 93.2273 32.592C92.7579 33.2533 92.2779 34.0213 91.7873 34.896C91.2966 35.7707 90.8593 36.592 90.4753 37.36C90.8806 36.8693 91.3073 36.3787 91.7552 35.888C92.2033 35.3973 92.6939 34.928 93.2273 34.48C93.7393 34.032 94.3473 33.5733 95.0513 33.104C95.7766 32.6133 96.4806 32.208 97.1633 31.888C97.8459 31.568 98.3899 31.408 98.7953 31.408C98.9446 31.408 99.0513 31.4187 99.1153 31.44C99.1153 31.44 98.9979 31.6533 98.7633 32.08C98.5286 32.4853 98.2299 33.0293 97.8673 33.712C97.5259 34.3733 97.1739 35.088 96.8113 35.856C96.4486 36.6027 96.1179 37.328 95.8193 38.032C95.5419 38.7147 95.3606 39.2907 95.2753 39.76C95.2113 40.0373 95.1793 40.2933 95.1793 40.528C95.1793 40.8693 95.2433 41.0933 95.3713 41.2C95.4993 41.3067 95.6379 41.36 95.7873 41.36C96.1926 41.36 96.6086 41.1787 97.0353 40.816C97.4619 40.4533 97.8673 39.9947 98.2513 39.44C98.6566 38.864 99.0299 38.256 99.3713 37.616C99.7126 36.976 100.001 36.3787 100.235 35.824C100.491 35.824 100.619 35.92 100.619 36.112C100.385 36.688 100.086 37.328 99.7233 38.032C99.3819 38.7147 98.9873 39.3653 98.5393 39.984C98.1126 40.6027 97.6326 41.1147 97.0993 41.52C96.5659 41.9253 95.9899 42.128 95.3713 42.128C94.9446 42.128 94.4966 41.9787 94.0273 41.68C93.5793 41.3813 93.3553 40.8267 93.3553 40.016C93.3553 39.7813 93.3766 39.536 93.4193 39.28C93.4619 39.0027 93.5366 38.704 93.6433 38.384C93.8139 37.9573 94.0166 37.4987 94.2513 37.008C94.4859 36.5173 94.8699 35.8453 95.4033 34.992C95.5526 34.7573 95.6379 34.576 95.6593 34.448C95.7019 34.32 95.7233 34.2133 95.7233 34.128C95.7233 33.872 95.6059 33.744 95.3713 33.744C95.1793 33.744 94.8913 33.8507 94.5073 34.064C94.1446 34.2773 93.6859 34.6507 93.1313 35.184C92.5979 35.696 91.9579 36.4213 91.2113 37.36C90.4859 38.2987 89.6433 39.6853 88.6833 41.52C88.5339 41.7973 88.3633 41.9467 88.1713 41.968C88.0006 41.9893 87.7553 42.0107 87.4352 42.032C87.2219 42.0533 87.0192 42.064 86.8272 42.064C86.6352 42.0853 86.4752 42.1493 86.3472 42.256ZM97.1597 42.256C97.9277 40.6987 98.6638 39.1627 99.3678 37.648C100.072 36.112 100.797 34.6507 101.544 33.264C101.97 32.496 102.333 31.9627 102.632 31.664C102.93 31.344 103.325 31.184 103.816 31.184C103.986 31.184 104.168 31.216 104.36 31.28C104.552 31.3227 104.744 31.344 104.936 31.344C105.064 31.344 105.16 31.3333 105.224 31.312C104.925 31.4827 104.53 31.9093 104.04 32.592C103.57 33.2533 103.09 34.0213 102.6 34.896C102.109 35.7707 101.672 36.592 101.288 37.36C101.693 36.8693 102.12 36.3787 102.568 35.888C103.016 35.3973 103.506 34.928 104.04 34.48C104.552 34.032 105.16 33.5733 105.864 33.104C106.589 32.6133 107.293 32.208 107.976 31.888C108.658 31.568 109.202 31.408 109.608 31.408C109.757 31.408 109.864 31.4187 109.928 31.44C109.928 31.44 109.81 31.6533 109.576 32.08C109.341 32.4853 109.042 33.0293 108.68 33.712C108.338 34.3733 107.986 35.088 107.624 35.856C107.261 36.6027 106.93 37.328 106.632 38.032C106.354 38.7147 106.173 39.2907 106.088 39.76C106.024 40.0373 105.992 40.2933 105.992 40.528C105.992 40.8693 106.056 41.0933 106.184 41.2C106.312 41.3067 106.45 41.36 106.6 41.36C107.005 41.36 107.421 41.1787 107.848 40.816C108.274 40.4533 108.68 39.9947 109.064 39.44C109.469 38.864 109.842 38.256 110.184 37.616C110.525 36.976 110.813 36.3787 111.048 35.824C111.304 35.824 111.432 35.92 111.432 36.112C111.197 36.688 110.898 37.328 110.536 38.032C110.194 38.7147 109.8 39.3653 109.352 39.984C108.925 40.6027 108.445 41.1147 107.912 41.52C107.378 41.9253 106.802 42.128 106.184 42.128C105.757 42.128 105.309 41.9787 104.84 41.68C104.392 41.3813 104.168 40.8267 104.168 40.016C104.168 39.7813 104.189 39.536 104.232 39.28C104.274 39.0027 104.349 38.704 104.456 38.384C104.626 37.9573 104.829 37.4987 105.064 37.008C105.298 36.5173 105.682 35.8453 106.216 34.992C106.365 34.7573 106.45 34.576 106.472 34.448C106.514 34.32 106.536 34.2133 106.536 34.128C106.536 33.872 106.418 33.744 106.184 33.744C105.992 33.744 105.704 33.8507 105.32 34.064C104.957 34.2773 104.498 34.6507 103.944 35.184C103.41 35.696 102.77 36.4213 102.024 37.36C101.298 38.2987 100.456 39.6853 99.4958 41.52C99.3464 41.7973 99.1758 41.9467 98.9838 41.968C98.8131 41.9893 98.5678 42.0107 98.2477 42.032C98.0344 42.0533 97.8317 42.064 97.6397 42.064C97.4477 42.0853 97.2877 42.1493 97.1597 42.256ZM113.348 42.128C112.559 42.128 111.844 41.872 111.204 41.36C110.586 40.848 110.276 40.0693 110.276 39.024C110.276 38.1493 110.468 37.2213 110.852 36.24C111.258 35.2587 111.78 34.3413 112.42 33.488C113.082 32.6133 113.807 31.9093 114.596 31.376C115.407 30.8213 116.218 30.544 117.028 30.544C117.434 30.544 117.828 30.6613 118.212 30.896C118.596 31.1307 118.788 31.536 118.788 32.112C118.788 32.6453 118.586 33.232 118.18 33.872C117.775 34.512 117.199 35.1093 116.452 35.664C116.132 35.8987 115.727 36.1227 115.236 36.336C114.746 36.5493 114.255 36.7307 113.764 36.88C113.274 37.008 112.868 37.072 112.548 37.072C112.442 37.328 112.335 37.6693 112.228 38.096C112.143 38.5227 112.1 38.96 112.1 39.408C112.1 39.9413 112.207 40.4213 112.42 40.848C112.634 41.2747 113.028 41.488 113.604 41.488C114.308 41.488 114.959 41.2853 115.556 40.88C116.175 40.4747 116.719 39.9627 117.188 39.344C117.679 38.7253 118.095 38.096 118.436 37.456C118.778 36.816 119.044 36.272 119.236 35.824C119.492 35.824 119.62 35.92 119.62 36.112C119.343 36.7093 119.023 37.36 118.66 38.064C118.319 38.768 117.903 39.4293 117.412 40.048C116.943 40.6453 116.367 41.1467 115.684 41.552C115.023 41.936 114.244 42.128 113.348 42.128ZM112.772 36.496C113.071 36.496 113.572 36.3893 114.276 36.176C114.98 35.9413 115.62 35.5787 116.196 35.088C116.751 34.5973 117.178 34.064 117.476 33.488C117.775 32.8907 117.924 32.3893 117.924 31.984C117.924 31.5147 117.754 31.28 117.412 31.28C117.156 31.28 116.804 31.4507 116.356 31.792C115.908 32.1333 115.354 32.7093 114.692 33.52C114.287 34.032 113.903 34.5867 113.54 35.184C113.178 35.7813 112.922 36.2187 112.772 36.496ZM121.984 42.128C120.81 42.128 119.936 41.8187 119.36 41.2C118.805 40.5813 118.528 39.7493 118.528 38.704C118.528 38.2133 118.624 37.648 118.816 37.008C119.008 36.368 119.264 35.7173 119.584 35.056C119.904 34.3947 120.256 33.808 120.64 33.296C121.258 32.464 121.941 31.824 122.688 31.376C123.434 30.9067 124.192 30.672 124.96 30.672C125.77 30.672 126.346 30.8533 126.688 31.216C127.05 31.5573 127.232 31.9627 127.232 32.432C127.232 32.88 127.125 33.2853 126.912 33.648C126.698 33.9893 126.453 34.2667 126.176 34.48C125.92 34.6933 125.696 34.8 125.504 34.8C125.333 34.8 125.184 34.736 125.056 34.608C125.226 34.3947 125.408 34.1387 125.6 33.84C125.792 33.5413 125.93 33.2533 126.016 32.976C126.101 32.72 126.144 32.464 126.144 32.208C126.144 31.6533 125.888 31.376 125.376 31.376C124.757 31.376 124.149 31.632 123.552 32.144C122.976 32.656 122.442 33.3173 121.952 34.128C121.482 34.9173 121.098 35.76 120.8 36.656C120.522 37.5307 120.384 38.3413 120.384 39.088C120.384 39.7707 120.522 40.336 120.8 40.784C121.098 41.232 121.578 41.456 122.24 41.456C123.114 41.456 123.882 41.1787 124.544 40.624C125.205 40.048 125.792 39.3333 126.304 38.48C126.816 37.6053 127.264 36.72 127.648 35.824C127.733 35.824 127.818 35.8453 127.904 35.888C127.989 35.9093 128.032 35.984 128.032 36.112C127.605 37.1787 127.104 38.1707 126.528 39.088C125.952 40.0053 125.29 40.7413 124.544 41.296C123.818 41.8507 122.965 42.128 121.984 42.128ZM134.262 25.104C133.985 25.5093 133.675 26.0213 133.334 26.64C132.993 27.2587 132.673 27.856 132.374 28.432C132.097 29.008 131.883 29.4453 131.734 29.744H134.678C134.678 29.8293 134.635 29.968 134.55 30.16C134.486 30.352 134.347 30.4907 134.134 30.576H131.35C131.094 31.152 130.795 31.8453 130.454 32.656C130.134 33.4667 129.814 34.3093 129.494 35.184C129.195 36.0587 128.939 36.88 128.726 37.648C128.534 38.3947 128.438 39.0027 128.438 39.472C128.438 40.112 128.523 40.592 128.694 40.912C128.865 41.2107 129.174 41.36 129.622 41.36C130.198 41.36 130.753 41.0827 131.286 40.528C131.819 39.952 132.321 39.2373 132.79 38.384C133.281 37.5307 133.707 36.6773 134.07 35.824C134.326 35.824 134.454 35.92 134.454 36.112C134.219 36.688 133.931 37.3173 133.59 38C133.249 38.6827 132.854 39.344 132.406 39.984C131.979 40.6027 131.489 41.1147 130.934 41.52C130.401 41.904 129.803 42.096 129.142 42.096C128.246 42.096 127.638 41.8507 127.318 41.36C126.998 40.848 126.838 40.1973 126.838 39.408C126.838 38.832 126.945 38.1387 127.158 37.328C127.371 36.496 127.627 35.6427 127.926 34.768C128.246 33.8933 128.555 33.0827 128.854 32.336C129.153 31.568 129.387 30.9813 129.558 30.576H127.51C127.51 30.4053 127.585 30.224 127.734 30.032C127.883 29.84 128.043 29.744 128.214 29.744H129.91C130.081 29.4027 130.273 28.976 130.486 28.464C130.721 27.952 131.03 27.3867 131.414 26.768C131.734 26.256 132.139 25.8507 132.63 25.552C133.142 25.2533 133.686 25.104 134.262 25.104Z" fill="black"/>
</svg>
